<svg width="20" height="20" viewBox="0 0 20 20" fill="none" xmlns="http://www.w3.org/2000/svg">
<path d="M6.6001 14.0246C6.83385 14.0246 7.02992 13.9454 7.18832 13.787C7.34672 13.6286 7.42565 13.4328 7.4251 13.1996C7.42455 12.9664 7.34535 12.7706 7.1875 12.6122C7.02965 12.4538 6.83385 12.3746 6.6001 12.3746C6.36635 12.3746 6.17055 12.4538 6.0127 12.6122C5.85485 12.7706 5.77565 12.9664 5.7751 13.1996C5.77455 13.4328 5.85375 13.6289 6.0127 13.7878C6.17165 13.9468 6.36745 14.0257 6.6001 14.0246ZM6.6001 10.7246C6.83385 10.7246 7.02992 10.6454 7.18832 10.487C7.34672 10.3286 7.42565 10.1328 7.4251 9.89961C7.42455 9.66641 7.34535 9.47061 7.1875 9.31221C7.02965 9.15381 6.83385 9.07461 6.6001 9.07461C6.36635 9.07461 6.17055 9.15381 6.0127 9.31221C5.85485 9.47061 5.77565 9.66641 5.7751 9.89961C5.77455 10.1328 5.85375 10.3289 6.0127 10.4878C6.17165 10.6468 6.36745 10.7257 6.6001 10.7246ZM6.6001 7.42461C6.83385 7.42461 7.02992 7.34541 7.18832 7.18701C7.34672 7.02861 7.42565 6.83281 7.4251 6.59961C7.42455 6.36641 7.34535 6.17061 7.1875 6.01221C7.02965 5.85381 6.83385 5.77461 6.6001 5.77461C6.36635 5.77461 6.17055 5.85381 6.0127 6.01221C5.85485 6.17061 5.77565 6.36641 5.7751 6.59961C5.77455 6.83281 5.85375 7.02888 6.0127 7.18783C6.17165 7.34678 6.36745 7.42571 6.6001 7.42461ZM9.9001 14.0246H13.2001C13.4338 14.0246 13.6299 13.9454 13.7883 13.787C13.9467 13.6286 14.0256 13.4328 14.0251 13.1996C14.0245 12.9664 13.9453 12.7706 13.7875 12.6122C13.6296 12.4538 13.4338 12.3746 13.2001 12.3746H9.9001C9.66635 12.3746 9.47055 12.4538 9.3127 12.6122C9.15485 12.7706 9.07565 12.9664 9.0751 13.1996C9.07455 13.4328 9.15375 13.6289 9.3127 13.7878C9.47165 13.9468 9.66745 14.0257 9.9001 14.0246ZM9.9001 10.7246H13.2001C13.4338 10.7246 13.6299 10.6454 13.7883 10.487C13.9467 10.3286 14.0256 10.1328 14.0251 9.89961C14.0245 9.66641 13.9453 9.47061 13.7875 9.31221C13.6296 9.15381 13.4338 9.07461 13.2001 9.07461H9.9001C9.66635 9.07461 9.47055 9.15381 9.3127 9.31221C9.15485 9.47061 9.07565 9.66641 9.0751 9.89961C9.07455 10.1328 9.15375 10.3289 9.3127 10.4878C9.47165 10.6468 9.66745 10.7257 9.9001 10.7246ZM9.9001 7.42461H13.2001C13.4338 7.42461 13.6299 7.34541 13.7883 7.18701C13.9467 7.02861 14.0256 6.83281 14.0251 6.59961C14.0245 6.36641 13.9453 6.17061 13.7875 6.01221C13.6296 5.85381 13.4338 5.77461 13.2001 5.77461H9.9001C9.66635 5.77461 9.47055 5.85381 9.3127 6.01221C9.15485 6.17061 9.07565 6.36641 9.0751 6.59961C9.07455 6.83281 9.15375 7.02888 9.3127 7.18783C9.47165 7.34678 9.66745 7.42571 9.9001 7.42461ZM4.1251 17.3246C3.67135 17.3246 3.28305 17.1632 2.9602 16.8403C2.63735 16.5175 2.47565 16.1289 2.4751 15.6746V4.12461C2.4751 3.67086 2.6368 3.28256 2.9602 2.95971C3.2836 2.63686 3.6719 2.47516 4.1251 2.47461H15.6751C16.1288 2.47461 16.5174 2.63631 16.8408 2.95971C17.1642 3.28311 17.3256 3.67141 17.3251 4.12461V15.6746C17.3251 16.1284 17.1637 16.5169 16.8408 16.8403C16.518 17.1637 16.1294 17.3252 15.6751 17.3246H4.1251ZM4.1251 15.6746H15.6751V4.12461H4.1251V15.6746Z" fill="#999CA0"/>
</svg>
