<svg width="20" height="20" viewBox="0 0 20 20" fill="none" xmlns="http://www.w3.org/2000/svg">
<path d="M2.68115 4.12422C2.68115 3.52251 2.92018 2.94544 3.34565 2.51997C3.77113 2.0945 4.34819 1.85547 4.9499 1.85547H13.1999C13.8016 1.85547 14.3787 2.0945 14.8041 2.51997C15.2296 2.94544 15.4687 3.52251 15.4687 4.12422V8.66172C15.4687 8.82582 15.4035 8.9832 15.2874 9.09924C15.1714 9.21528 15.014 9.28047 14.8499 9.28047C14.6858 9.28047 14.5284 9.21528 14.4124 9.09924C14.2963 8.9832 14.2312 8.82582 14.2312 8.66172V4.12422C14.2312 3.55497 13.7692 3.09297 13.1999 3.09297H4.9499C4.38065 3.09297 3.91865 3.55497 3.91865 4.12422V15.9894C3.91858 16.0246 3.92753 16.0592 3.94463 16.09C3.96174 16.1208 3.98644 16.1466 4.01637 16.1652C4.04631 16.1837 4.0805 16.1942 4.11567 16.1958C4.15084 16.1974 4.18583 16.1899 4.2173 16.1742L5.0423 15.7617C5.28204 15.6418 5.55039 15.5911 5.81733 15.6151C6.08426 15.6392 6.33924 15.7371 6.5537 15.8978L7.30115 16.458C7.33685 16.4847 7.38028 16.4992 7.4249 16.4992C7.46953 16.4992 7.51295 16.4847 7.54865 16.458L8.2598 15.9242C8.48941 15.7521 8.76507 15.6524 9.0516 15.6377C9.33814 15.623 9.62255 15.694 9.86855 15.8417L10.4246 16.175C10.4951 16.2164 10.5567 16.2713 10.6059 16.3367C10.655 16.402 10.6908 16.4765 10.711 16.5557C10.7312 16.635 10.7355 16.7174 10.7236 16.7983C10.7118 16.8792 10.684 16.957 10.6419 17.0271C10.5998 17.0972 10.5442 17.1583 10.4784 17.2068C10.4126 17.2553 10.3378 17.2902 10.2584 17.3097C10.1789 17.3291 10.0964 17.3326 10.0157 17.3199C9.93487 17.3073 9.85739 17.2787 9.7877 17.2359L9.23248 16.9026C9.19732 16.8814 9.15663 16.8712 9.11563 16.8733C9.07462 16.8753 9.03516 16.8896 9.0023 16.9142L8.29115 17.448C8.04124 17.6354 7.73729 17.7367 7.4249 17.7367C7.11252 17.7367 6.80856 17.6354 6.55865 17.448L5.8112 16.887C5.78058 16.8642 5.74424 16.8504 5.70622 16.847C5.66821 16.8437 5.63001 16.8509 5.59588 16.868L4.77088 17.2805C4.55077 17.3906 4.30616 17.4426 4.06028 17.4316C3.81441 17.4206 3.57543 17.3469 3.36605 17.2176C3.15666 17.0882 2.98383 16.9074 2.86396 16.6925C2.74409 16.4775 2.68116 16.2355 2.68115 15.9894V4.12422Z" fill="#999CA0"/>
<path d="M2.68115 4.12422C2.68115 3.52251 2.92018 2.94544 3.34565 2.51997C3.77113 2.0945 4.34819 1.85547 4.9499 1.85547H13.1999C13.8016 1.85547 14.3787 2.0945 14.8041 2.51997C15.2296 2.94544 15.4687 3.52251 15.4687 4.12422V8.66172C15.4687 8.82582 15.4035 8.9832 15.2874 9.09924C15.1714 9.21528 15.014 9.28047 14.8499 9.28047C14.6858 9.28047 14.5284 9.21528 14.4124 9.09924C14.2963 8.9832 14.2312 8.82582 14.2312 8.66172V4.12422C14.2312 3.55497 13.7692 3.09297 13.1999 3.09297H4.9499C4.38065 3.09297 3.91865 3.55497 3.91865 4.12422V15.9894C3.91858 16.0246 3.92753 16.0592 3.94463 16.09C3.96174 16.1208 3.98644 16.1466 4.01637 16.1652C4.04631 16.1837 4.0805 16.1942 4.11567 16.1958C4.15084 16.1974 4.18583 16.1899 4.2173 16.1742L5.0423 15.7617C5.28204 15.6418 5.55039 15.5911 5.81733 15.6151C6.08426 15.6392 6.33924 15.7371 6.5537 15.8978L7.30115 16.458C7.33685 16.4847 7.38028 16.4992 7.4249 16.4992C7.46953 16.4992 7.51295 16.4847 7.54865 16.458L8.2598 15.9242C8.48941 15.7521 8.76507 15.6524 9.0516 15.6377C9.33814 15.623 9.62255 15.694 9.86855 15.8417L10.4246 16.175C10.4951 16.2164 10.5567 16.2713 10.6059 16.3367C10.655 16.402 10.6908 16.4765 10.711 16.5557C10.7312 16.635 10.7355 16.7174 10.7236 16.7983C10.7118 16.8792 10.684 16.957 10.6419 17.0271C10.5998 17.0972 10.5442 17.1583 10.4784 17.2068C10.4126 17.2553 10.3378 17.2902 10.2584 17.3097C10.1789 17.3291 10.0964 17.3326 10.0157 17.3199C9.93487 17.3073 9.85739 17.2787 9.7877 17.2359L9.23248 16.9026C9.19732 16.8814 9.15663 16.8712 9.11563 16.8733C9.07462 16.8753 9.03516 16.8896 9.0023 16.9142L8.29115 17.448C8.04124 17.6354 7.73729 17.7367 7.4249 17.7367C7.11252 17.7367 6.80856 17.6354 6.55865 17.448L5.8112 16.887C5.78058 16.8642 5.74424 16.8504 5.70622 16.847C5.66821 16.8437 5.63001 16.8509 5.59588 16.868L4.77088 17.2805C4.55077 17.3906 4.30616 17.4426 4.06028 17.4316C3.81441 17.4206 3.57543 17.3469 3.36605 17.2176C3.15666 17.0882 2.98383 16.9074 2.86396 16.6925C2.74409 16.4775 2.68116 16.2355 2.68115 15.9894V4.12422Z" fill="#999CA0"/>
<path d="M14.4375 12.1687C13.8358 12.1687 13.2587 12.4078 12.8333 12.8333C12.4078 13.2587 12.1687 13.8358 12.1687 14.4375C12.1687 15.0392 12.4078 15.6163 12.8333 16.0417C13.2587 16.4672 13.8358 16.7062 14.4375 16.7062C15.0392 16.7062 15.6163 16.4672 16.0417 16.0417C16.4672 15.6163 16.7062 15.0392 16.7062 14.4375C16.7062 13.8358 16.4672 13.2587 16.0417 12.8333C15.6163 12.4078 15.0392 12.1687 14.4375 12.1687ZM10.9312 14.4375C10.9312 13.9771 11.0219 13.5211 11.1981 13.0957C11.3744 12.6703 11.6326 12.2838 11.9582 11.9582C12.2838 11.6326 12.6703 11.3744 13.0957 11.1981C13.5211 11.0219 13.9771 10.9312 14.4375 10.9312C14.8979 10.9312 15.3539 11.0219 15.7793 11.1981C16.2047 11.3744 16.5912 11.6326 16.9168 11.9582C17.2424 12.2838 17.5006 12.6703 17.6769 13.0957C17.8531 13.5211 17.9437 13.9771 17.9437 14.4375C17.9437 15.3674 17.5743 16.2592 16.9168 16.9168C16.2592 17.5743 15.3674 17.9437 14.4375 17.9437C13.5076 17.9437 12.6158 17.5743 11.9582 16.9168C11.3007 16.2592 10.9312 15.3674 10.9312 14.4375ZM15.958 13.2784C16.0738 13.3944 16.1389 13.5517 16.1389 13.7156C16.1389 13.8796 16.0738 14.0369 15.958 14.1529L14.077 16.0339L12.917 14.8748C12.8562 14.8181 12.8075 14.7498 12.7737 14.6739C12.7398 14.598 12.7217 14.5161 12.7202 14.433C12.7187 14.3499 12.734 14.2674 12.7651 14.1903C12.7962 14.1133 12.8426 14.0433 12.9013 13.9845C12.9601 13.9258 13.0301 13.8795 13.1071 13.8483C13.1842 13.8172 13.2667 13.8019 13.3498 13.8034C13.4328 13.8049 13.5148 13.8231 13.5907 13.8569C13.6666 13.8907 13.7349 13.9395 13.7915 14.0002L14.077 14.284L15.0835 13.2775C15.1995 13.1617 15.3568 13.0966 15.5207 13.0966C15.6847 13.0966 15.842 13.1625 15.958 13.2784ZM5.15625 5.775C5.15625 5.6109 5.22144 5.45352 5.33748 5.33748C5.45352 5.22144 5.6109 5.15625 5.775 5.15625H11.1375C11.3016 5.15625 11.459 5.22144 11.575 5.33748C11.6911 5.45352 11.7562 5.6109 11.7562 5.775C11.7562 5.9391 11.6911 6.09648 11.575 6.21252C11.459 6.32856 11.3016 6.39375 11.1375 6.39375H5.775C5.6109 6.39375 5.45352 6.32856 5.33748 6.21252C5.22144 6.09648 5.15625 5.9391 5.15625 5.775ZM5.15625 8.25C5.15625 8.0859 5.22144 7.92852 5.33748 7.81248C5.45352 7.69644 5.6109 7.63125 5.775 7.63125H12.375C12.5391 7.63125 12.6965 7.69644 12.8125 7.81248C12.9286 7.92852 12.9937 8.0859 12.9937 8.25C12.9937 8.4141 12.9286 8.57148 12.8125 8.68752C12.6965 8.80356 12.5391 8.86875 12.375 8.86875H5.775C5.6109 8.86875 5.45352 8.80356 5.33748 8.68752C5.22144 8.57148 5.15625 8.4141 5.15625 8.25ZM5.15625 10.725C5.15625 10.5609 5.22144 10.4035 5.33748 10.2875C5.45352 10.1714 5.6109 10.1062 5.775 10.1062H8.6625C8.8266 10.1062 8.98398 10.1714 9.10002 10.2875C9.21606 10.4035 9.28125 10.5609 9.28125 10.725C9.28125 10.8891 9.21606 11.0465 9.10002 11.1625C8.98398 11.2786 8.8266 11.3437 8.6625 11.3437H5.775C5.6109 11.3437 5.45352 11.2786 5.33748 11.1625C5.22144 11.0465 5.15625 10.8891 5.15625 10.725ZM5.15625 13.2C5.15625 13.0359 5.22144 12.8785 5.33748 12.7625C5.45352 12.6464 5.6109 12.5812 5.775 12.5812H8.6625C8.8266 12.5812 8.98398 12.6464 9.10002 12.7625C9.21606 12.8785 9.28125 13.0359 9.28125 13.2C9.28125 13.3641 9.21606 13.5215 9.10002 13.6375C8.98398 13.7536 8.8266 13.8187 8.6625 13.8187H5.775C5.6109 13.8187 5.45352 13.7536 5.33748 13.6375C5.22144 13.5215 5.15625 13.3641 5.15625 13.2Z" fill="#999CA0"/>
<path d="M14.4375 12.1687C13.8358 12.1687 13.2587 12.4078 12.8333 12.8333C12.4078 13.2587 12.1687 13.8358 12.1687 14.4375C12.1687 15.0392 12.4078 15.6163 12.8333 16.0417C13.2587 16.4672 13.8358 16.7062 14.4375 16.7062C15.0392 16.7062 15.6163 16.4672 16.0417 16.0417C16.4672 15.6163 16.7062 15.0392 16.7062 14.4375C16.7062 13.8358 16.4672 13.2587 16.0417 12.8333C15.6163 12.4078 15.0392 12.1687 14.4375 12.1687ZM10.9312 14.4375C10.9312 13.9771 11.0219 13.5211 11.1981 13.0957C11.3744 12.6703 11.6326 12.2838 11.9582 11.9582C12.2838 11.6326 12.6703 11.3744 13.0957 11.1981C13.5211 11.0219 13.9771 10.9312 14.4375 10.9312C14.8979 10.9312 15.3539 11.0219 15.7793 11.1981C16.2047 11.3744 16.5912 11.6326 16.9168 11.9582C17.2424 12.2838 17.5006 12.6703 17.6769 13.0957C17.8531 13.5211 17.9437 13.9771 17.9437 14.4375C17.9437 15.3674 17.5743 16.2592 16.9168 16.9168C16.2592 17.5743 15.3674 17.9437 14.4375 17.9437C13.5076 17.9437 12.6158 17.5743 11.9582 16.9168C11.3007 16.2592 10.9312 15.3674 10.9312 14.4375ZM15.958 13.2784C16.0738 13.3944 16.1389 13.5517 16.1389 13.7156C16.1389 13.8796 16.0738 14.0369 15.958 14.1529L14.077 16.0339L12.917 14.8748C12.8562 14.8181 12.8075 14.7498 12.7737 14.6739C12.7398 14.598 12.7217 14.5161 12.7202 14.433C12.7187 14.3499 12.734 14.2674 12.7651 14.1903C12.7962 14.1133 12.8426 14.0433 12.9013 13.9845C12.9601 13.9258 13.0301 13.8795 13.1071 13.8483C13.1842 13.8172 13.2667 13.8019 13.3498 13.8034C13.4328 13.8049 13.5148 13.8231 13.5907 13.8569C13.6666 13.8907 13.7349 13.9395 13.7915 14.0002L14.077 14.284L15.0835 13.2775C15.1995 13.1617 15.3568 13.0966 15.5207 13.0966C15.6847 13.0966 15.842 13.1625 15.958 13.2784ZM5.15625 5.775C5.15625 5.6109 5.22144 5.45352 5.33748 5.33748C5.45352 5.22144 5.6109 5.15625 5.775 5.15625H11.1375C11.3016 5.15625 11.459 5.22144 11.575 5.33748C11.6911 5.45352 11.7562 5.6109 11.7562 5.775C11.7562 5.9391 11.6911 6.09648 11.575 6.21252C11.459 6.32856 11.3016 6.39375 11.1375 6.39375H5.775C5.6109 6.39375 5.45352 6.32856 5.33748 6.21252C5.22144 6.09648 5.15625 5.9391 5.15625 5.775ZM5.15625 8.25C5.15625 8.0859 5.22144 7.92852 5.33748 7.81248C5.45352 7.69644 5.6109 7.63125 5.775 7.63125H12.375C12.5391 7.63125 12.6965 7.69644 12.8125 7.81248C12.9286 7.92852 12.9937 8.0859 12.9937 8.25C12.9937 8.4141 12.9286 8.57148 12.8125 8.68752C12.6965 8.80356 12.5391 8.86875 12.375 8.86875H5.775C5.6109 8.86875 5.45352 8.80356 5.33748 8.68752C5.22144 8.57148 5.15625 8.4141 5.15625 8.25ZM5.15625 10.725C5.15625 10.5609 5.22144 10.4035 5.33748 10.2875C5.45352 10.1714 5.6109 10.1062 5.775 10.1062H8.6625C8.8266 10.1062 8.98398 10.1714 9.10002 10.2875C9.21606 10.4035 9.28125 10.5609 9.28125 10.725C9.28125 10.8891 9.21606 11.0465 9.10002 11.1625C8.98398 11.2786 8.8266 11.3437 8.6625 11.3437H5.775C5.6109 11.3437 5.45352 11.2786 5.33748 11.1625C5.22144 11.0465 5.15625 10.8891 5.15625 10.725ZM5.15625 13.2C5.15625 13.0359 5.22144 12.8785 5.33748 12.7625C5.45352 12.6464 5.6109 12.5812 5.775 12.5812H8.6625C8.8266 12.5812 8.98398 12.6464 9.10002 12.7625C9.21606 12.8785 9.28125 13.0359 9.28125 13.2C9.28125 13.3641 9.21606 13.5215 9.10002 13.6375C8.98398 13.7536 8.8266 13.8187 8.6625 13.8187H5.775C5.6109 13.8187 5.45352 13.7536 5.33748 13.6375C5.22144 13.5215 5.15625 13.3641 5.15625 13.2Z" fill="#999CA0"/>
</svg>
