<svg width="14" height="14" viewBox="0 0 14 14" fill="none" xmlns="http://www.w3.org/2000/svg">
<path d="M11.0827 2.33366H9.91602V1.75033C9.91602 1.59562 9.85456 1.44724 9.74516 1.33785C9.63577 1.22845 9.48739 1.16699 9.33268 1.16699C9.17797 1.16699 9.0296 1.22845 8.9202 1.33785C8.81081 1.44724 8.74935 1.59562 8.74935 1.75033V2.33366H5.24935V1.75033C5.24935 1.59562 5.18789 1.44724 5.07849 1.33785C4.9691 1.22845 4.82073 1.16699 4.66602 1.16699C4.51131 1.16699 4.36293 1.22845 4.25354 1.33785C4.14414 1.44724 4.08268 1.59562 4.08268 1.75033V2.33366H2.91602C2.45189 2.33366 2.00677 2.51803 1.67858 2.84622C1.35039 3.17441 1.16602 3.61953 1.16602 4.08366V11.0837C1.16602 11.5478 1.35039 11.9929 1.67858 12.3211C2.00677 12.6493 2.45189 12.8337 2.91602 12.8337H11.0827C11.5468 12.8337 11.9919 12.6493 12.3201 12.3211C12.6483 11.9929 12.8327 11.5478 12.8327 11.0837V4.08366C12.8327 3.61953 12.6483 3.17441 12.3201 2.84622C11.9919 2.51803 11.5468 2.33366 11.0827 2.33366ZM11.666 11.0837C11.666 11.2384 11.6046 11.3867 11.4952 11.4961C11.3858 11.6055 11.2374 11.667 11.0827 11.667H2.91602C2.76131 11.667 2.61293 11.6055 2.50354 11.4961C2.39414 11.3867 2.33268 11.2384 2.33268 11.0837V7.00033H11.666V11.0837ZM11.666 5.83366H2.33268V4.08366C2.33268 3.92895 2.39414 3.78058 2.50354 3.67118C2.61293 3.56178 2.76131 3.50033 2.91602 3.50033H4.08268V4.08366C4.08268 4.23837 4.14414 4.38674 4.25354 4.49614C4.36293 4.60553 4.51131 4.66699 4.66602 4.66699C4.82073 4.66699 4.9691 4.60553 5.07849 4.49614C5.18789 4.38674 5.24935 4.23837 5.24935 4.08366V3.50033H8.74935V4.08366C8.74935 4.23837 8.81081 4.38674 8.9202 4.49614C9.0296 4.60553 9.17797 4.66699 9.33268 4.66699C9.48739 4.66699 9.63577 4.60553 9.74516 4.49614C9.85456 4.38674 9.91602 4.23837 9.91602 4.08366V3.50033H11.0827C11.2374 3.50033 11.3858 3.56178 11.4952 3.67118C11.6046 3.78058 11.666 3.92895 11.666 4.08366V5.83366Z" fill="#999999"/>
</svg>
