<svg width="20" height="20" viewBox="0 0 20 20" fill="none" xmlns="http://www.w3.org/2000/svg">
<path d="M16.7061 13.6995V11.1373C16.7061 10.8091 16.5757 10.4943 16.3436 10.2623C16.1115 10.0302 15.7968 9.89981 15.4686 9.89981H10.5186V7.42481H11.7561C12.0843 7.42481 12.399 7.29443 12.6311 7.06235C12.8632 6.83027 12.9936 6.51551 12.9936 6.1873V2.4748C12.9936 2.1466 12.8632 1.83184 12.6311 1.59976C12.399 1.36768 12.0843 1.2373 11.7561 1.2373H8.04356C7.71535 1.2373 7.40059 1.36768 7.16852 1.59976C6.93644 1.83184 6.80606 2.1466 6.80606 2.4748V6.1873C6.80606 6.51551 6.93644 6.83027 7.16852 7.06235C7.40059 7.29443 7.71535 7.42481 8.04356 7.42481H9.28106V9.89981H4.33106C4.00286 9.89981 3.68809 10.0302 3.45602 10.2623C3.22394 10.4943 3.09356 10.8091 3.09356 11.1373V13.7002C2.51029 13.8508 2.00197 14.2089 1.66388 14.7075C1.32578 15.2061 1.18113 15.8108 1.25704 16.4084C1.33294 17.006 1.62419 17.5554 2.07619 17.9537C2.52819 18.3519 3.10991 18.5716 3.71231 18.5716C4.31471 18.5716 4.89643 18.3519 5.34843 17.9537C5.80043 17.5554 6.09168 17.006 6.16758 16.4084C6.24349 15.8108 6.09884 15.2061 5.76075 14.7075C5.42265 14.2089 4.91433 13.8508 4.33106 13.7002V11.1373H9.28106V13.7002C8.69779 13.8508 8.18947 14.2089 7.85138 14.7075C7.51328 15.2061 7.36863 15.8108 7.44454 16.4084C7.52044 17.006 7.81169 17.5554 8.26369 17.9537C8.71569 18.3519 9.29741 18.5716 9.89981 18.5716C10.5022 18.5716 11.0839 18.3519 11.5359 17.9537C11.9879 17.5554 12.2792 17.006 12.3551 16.4084C12.431 15.8108 12.2863 15.2061 11.9482 14.7075C11.6102 14.2089 11.1018 13.8508 10.5186 13.7002V11.1373H15.4686V13.6995C14.8853 13.8501 14.377 14.2083 14.0389 14.7069C13.7008 15.2055 13.5561 15.8102 13.632 16.4078C13.7079 17.0054 13.9992 17.5548 14.4512 17.953C14.9032 18.3513 15.4849 18.571 16.0873 18.571C16.6897 18.571 17.2714 18.3513 17.7234 17.953C18.1754 17.5548 18.4667 17.0054 18.5426 16.4078C18.6185 15.8102 18.4738 15.2055 18.1357 14.7069C17.7977 14.2083 17.2893 13.8501 16.7061 13.6995ZM8.04356 2.4748H11.7561L11.7567 6.1873H8.04356V2.4748ZM4.94981 16.0873C4.94981 16.3321 4.87723 16.5713 4.74125 16.7748C4.60528 16.9783 4.412 17.1369 4.18588 17.2306C3.95976 17.3243 3.71094 17.3488 3.47089 17.301C3.23083 17.2533 3.01033 17.1354 2.83727 16.9623C2.6642 16.7893 2.54634 16.5688 2.49859 16.3287C2.45084 16.0887 2.47535 15.8399 2.56901 15.6137C2.66267 15.3876 2.82129 15.1943 3.02479 15.0584C3.2283 14.9224 3.46756 14.8498 3.71231 14.8498C4.04052 14.8498 4.35528 14.9802 4.58736 15.2123C4.81943 15.4443 4.94981 15.7591 4.94981 16.0873ZM11.1373 16.0873C11.1373 16.3321 11.0647 16.5713 10.9288 16.7748C10.7928 16.9783 10.5995 17.1369 10.3734 17.2306C10.1473 17.3243 9.89844 17.3488 9.65839 17.301C9.41833 17.2533 9.19783 17.1354 9.02477 16.9623C8.8517 16.7893 8.73384 16.5688 8.68609 16.3287C8.63834 16.0887 8.66285 15.8399 8.75651 15.6137C8.85017 15.3876 9.00879 15.1943 9.21229 15.0584C9.4158 14.9224 9.65506 14.8498 9.89981 14.8498C10.2279 14.8503 10.5423 14.9808 10.7743 15.2128C11.0063 15.4448 11.1368 15.7593 11.1373 16.0873ZM16.0873 17.3248C15.8426 17.3248 15.6033 17.2522 15.3998 17.1162C15.1963 16.9803 15.0377 16.787 14.944 16.5609C14.8503 16.3348 14.8258 16.0859 14.8736 15.8459C14.9213 15.6058 15.0392 15.3853 15.2123 15.2123C15.3853 15.0392 15.6058 14.9213 15.8459 14.8736C16.0859 14.8258 16.3348 14.8503 16.5609 14.944C16.787 15.0377 16.9803 15.1963 17.1163 15.3998C17.2522 15.6033 17.3248 15.8426 17.3248 16.0873C17.3248 16.4155 17.1944 16.7303 16.9624 16.9623C16.7303 17.1944 16.4155 17.3248 16.0873 17.3248Z" fill="#999CA0"/>
</svg>
