<svg width="34" height="34" viewBox="0 0 34 34" fill="none" xmlns="http://www.w3.org/2000/svg">
<path d="M5.17688 14.0002C5.17688 15.2835 5.39294 16.5613 5.82508 17.8334C6.25721 19.1055 6.89281 20.2778 7.73188 21.3502C7.94188 21.6069 8.04688 21.9046 8.04688 22.2434C8.04688 22.5822 7.93021 22.8678 7.69688 23.1002C7.46354 23.3326 7.17794 23.4376 6.84008 23.4152C6.50221 23.3928 6.22781 23.2528 6.01688 22.9952C4.94354 21.6652 4.13854 20.2419 3.60188 18.7252C3.06521 17.2085 2.79688 15.6335 2.79688 14.0002C2.79687 12.3669 3.06521 10.7919 3.60188 9.27521C4.13854 7.75855 4.94354 6.33521 6.01688 5.00521C6.22688 4.74855 6.50128 4.60855 6.84008 4.58521C7.17888 4.56188 7.46448 4.66688 7.69688 4.90021C7.92928 5.13355 8.04594 5.41915 8.04688 5.75701C8.04781 6.09488 7.94281 6.39261 7.73188 6.65021C6.89188 7.72355 6.25628 8.89628 5.82508 10.1684C5.39388 11.4405 5.17781 12.7178 5.17688 14.0002ZM9.79688 14.0002C9.79688 14.6769 9.90188 15.3652 10.1119 16.0652C10.3219 16.7652 10.6602 17.4185 11.1269 18.0252C11.3135 18.2819 11.4069 18.5735 11.4069 18.9002C11.4069 19.2269 11.2902 19.5069 11.0569 19.7402C10.8235 19.9735 10.5435 20.0846 10.2169 20.0734C9.89021 20.0622 9.62188 19.9278 9.41188 19.6702C8.75854 18.8302 8.26248 17.9263 7.92368 16.9584C7.58488 15.9905 7.41594 15.0045 7.41688 14.0002C7.41781 12.9959 7.58721 12.0099 7.92508 11.042C8.26294 10.0741 8.75854 9.17021 9.41188 8.33021C9.62188 8.07355 9.89021 7.93915 10.2169 7.92701C10.5435 7.91488 10.8235 8.02595 11.0569 8.26021C11.2902 8.49448 11.4013 8.77448 11.3901 9.10021C11.3789 9.42595 11.2795 9.71761 11.0919 9.97521C10.6485 10.5585 10.3219 11.1946 10.1119 11.8834C9.90188 12.5722 9.79688 13.2778 9.79688 14.0002ZM13.5419 28.0002L12.9119 29.8902C12.8185 30.1469 12.6552 30.3629 12.4219 30.5384C12.1885 30.7139 11.9319 30.8011 11.6519 30.8002C11.1852 30.8002 10.8235 30.6196 10.5669 30.2584C10.3102 29.8972 10.2519 29.4945 10.3919 29.0502L14.5219 16.6252C14.1485 16.2985 13.8508 15.9135 13.6287 15.4702C13.4065 15.0269 13.2959 14.5369 13.2969 14.0002C13.2969 13.0202 13.6352 12.1919 14.3119 11.5152C14.9885 10.8385 15.8169 10.5002 16.7969 10.5002C17.7769 10.5002 18.6052 10.8385 19.2819 11.5152C19.9585 12.1919 20.2969 13.0202 20.2969 14.0002C20.2969 14.5369 20.1858 15.0269 19.9637 15.4702C19.7415 15.9135 19.4443 16.2985 19.0719 16.6252L23.2019 29.0502C23.3419 29.4702 23.2896 29.8669 23.0451 30.2402C22.8005 30.6136 22.4445 30.8002 21.9769 30.8002C21.6969 30.8002 21.4346 30.7185 21.1901 30.5552C20.9455 30.3919 20.7761 30.1702 20.6819 29.8902L20.0869 28.0002H13.5419ZM14.4519 25.2002H19.1419L16.7969 18.2002L14.4519 25.2002ZM23.7969 14.0002C23.7969 13.3235 23.6919 12.6352 23.4819 11.9352C23.2719 11.2352 22.9335 10.5819 22.4669 9.97521C22.2802 9.71855 22.1869 9.42688 22.1869 9.10021C22.1869 8.77355 22.3035 8.49355 22.5369 8.26021C22.7702 8.02688 23.0558 7.91581 23.3937 7.92701C23.7315 7.93821 23.9943 8.07261 24.1819 8.33021C24.8119 9.17021 25.2902 10.0746 25.6169 11.0434C25.9435 12.0122 26.1302 12.9978 26.1769 14.0002C26.1769 15.0035 26.0075 15.9896 25.6687 16.9584C25.3299 17.9272 24.8343 18.8311 24.1819 19.6702C23.9719 19.9269 23.7035 20.0613 23.3769 20.0734C23.0502 20.0855 22.7702 19.9745 22.5369 19.7402C22.3035 19.5059 22.1925 19.2259 22.2037 18.9002C22.2149 18.5745 22.3143 18.2828 22.5019 18.0252C22.9452 17.4419 23.2719 16.8063 23.4819 16.1184C23.6919 15.4305 23.7969 14.7245 23.7969 14.0002ZM28.4169 14.0002C28.4169 12.7169 28.2013 11.4391 27.7701 10.167C27.3389 8.89488 26.7028 7.72261 25.8619 6.65021C25.6519 6.39355 25.5469 6.09581 25.5469 5.75701C25.5469 5.41821 25.6635 5.13261 25.8969 4.90021C26.1302 4.66781 26.4163 4.56281 26.7551 4.58521C27.0939 4.60761 27.3678 4.74761 27.5769 5.00521C28.6502 6.33521 29.4552 7.75855 29.9919 9.27521C30.5285 10.7919 30.7969 12.3669 30.7969 14.0002C30.7969 15.6335 30.5463 17.2085 30.0451 18.7252C29.5439 20.2419 28.7328 21.6652 27.6119 22.9952C27.3785 23.2519 27.0985 23.398 26.7719 23.4334C26.4452 23.4689 26.1535 23.3578 25.8969 23.1002C25.6635 22.8669 25.5469 22.5813 25.5469 22.2434C25.5469 21.9055 25.6519 21.6078 25.8619 21.3502C26.7019 20.2769 27.3379 19.1046 27.7701 17.8334C28.2022 16.5622 28.4178 15.2845 28.4169 14.0002Z" fill="#0B5DD8"/>
</svg>
