<svg width="20" height="20" viewBox="0 0 20 20" fill="none" xmlns="http://www.w3.org/2000/svg">
<path d="M16.6673 11.4596C16.6673 11.2939 16.6015 11.1349 16.4843 11.0177C16.367 10.9005 16.2081 10.8346 16.0423 10.8346H13.5423C13.3766 10.8346 13.2176 10.9005 13.1004 11.0177C12.9832 11.1349 12.9173 11.2939 12.9173 11.4596V17.0846H11.6673V3.54297C11.6673 2.9363 11.6656 2.54297 11.6273 2.25464C11.5906 1.9838 11.5315 1.8988 11.484 1.8513C11.4365 1.8038 11.3515 1.74464 11.0806 1.70797C10.7915 1.66964 10.399 1.66797 9.79232 1.66797C9.18565 1.66797 8.79232 1.66964 8.50398 1.70797C8.23315 1.74464 8.14815 1.8038 8.10065 1.8513C8.05315 1.8988 7.99398 1.9838 7.95732 2.25464C7.91898 2.5438 7.91732 2.9363 7.91732 3.54297V17.0846H6.66732V7.29297C6.66732 7.12721 6.60147 6.96824 6.48426 6.85103C6.36705 6.73382 6.20808 6.66797 6.04232 6.66797H3.54232C3.37656 6.66797 3.21759 6.73382 3.10038 6.85103C2.98317 6.96824 2.91732 7.12721 2.91732 7.29297V17.0846H1.45898C1.29322 17.0846 1.13425 17.1505 1.01704 17.2677C0.899832 17.3849 0.833984 17.5439 0.833984 17.7096C0.833984 17.8754 0.899832 18.0344 1.01704 18.1516C1.13425 18.2688 1.29322 18.3346 1.45898 18.3346H18.1256C18.2914 18.3346 18.4504 18.2688 18.5676 18.1516C18.6848 18.0344 18.7506 17.8754 18.7506 17.7096C18.7506 17.5439 18.6848 17.3849 18.5676 17.2677C18.4504 17.1505 18.2914 17.0846 18.1256 17.0846H16.6673V11.4596Z" fill="#0B5DD8"/>
</svg>
