<svg width="16" height="16" viewBox="0 0 16 16" fill="none" xmlns="http://www.w3.org/2000/svg">
<path d="M6.76397 8.30919L5.5332 9.84766L6.76397 11.3861M9.22551 8.30919L10.4563 9.84766L9.22551 11.3861M9.22551 1.84766V4.30919C9.22551 4.63561 9.35518 4.94867 9.58599 5.17948C9.81681 5.41029 10.1299 5.53996 10.4563 5.53996H12.9178" stroke="#999999" stroke-width="1.23077" stroke-linecap="round" stroke-linejoin="round"/>
<path d="M9.84052 1.84766H4.30206C3.97564 1.84766 3.66259 1.97733 3.43177 2.20814C3.20096 2.43895 3.07129 2.75201 3.07129 3.07843V12.9246C3.07129 13.251 3.20096 13.564 3.43177 13.7949C3.66259 14.0257 3.97564 14.1553 4.30206 14.1553H11.6867C12.0131 14.1553 12.3261 14.0257 12.557 13.7949C12.7878 13.564 12.9174 13.251 12.9174 12.9246V4.92458L9.84052 1.84766Z" stroke="#999999" stroke-width="1.23077" stroke-linecap="round" stroke-linejoin="round"/>
</svg>
