<svg width="20" height="20" viewBox="0 0 20 20" fill="none" xmlns="http://www.w3.org/2000/svg">
<path d="M2.50195 5.00293H4.16862H17.502" stroke="#E75A5A" stroke-width="1.5" stroke-linecap="round" stroke-linejoin="round"/>
<path d="M15.8317 4.9974V16.6641C15.8317 17.1061 15.6561 17.53 15.3436 17.8426C15.031 18.1551 14.6071 18.3307 14.165 18.3307H5.83171C5.38968 18.3307 4.96576 18.1551 4.65319 17.8426C4.34063 17.53 4.16504 17.1061 4.16504 16.6641V4.9974M6.66504 4.9974V3.33073C6.66504 2.8887 6.84063 2.46478 7.1532 2.15222C7.46576 1.83966 7.88968 1.66406 8.33171 1.66406H11.665C12.1071 1.66406 12.531 1.83966 12.8436 2.15222C13.1561 2.46478 13.3317 2.8887 13.3317 3.33073V4.9974" stroke="#E75A5A" stroke-width="1.5" stroke-linecap="round" stroke-linejoin="round"/>
<path d="M8.33105 9.16895V14.1689" stroke="#E75A5A" stroke-width="1.5" stroke-linecap="round" stroke-linejoin="round"/>
<path d="M11.6699 9.16895V14.1689" stroke="#E75A5A" stroke-width="1.5" stroke-linecap="round" stroke-linejoin="round"/>
</svg>
