<svg width="20" height="20" viewBox="0 0 20 20" fill="none" xmlns="http://www.w3.org/2000/svg">
<path d="M16.4999 1.65039H3.2999C2.38993 1.65039 1.6499 2.39042 1.6499 3.30039V13.2004C1.6499 14.1104 2.38993 14.8504 3.2999 14.8504H5.7749V17.9582L10.9534 14.8504H16.4999C17.4099 14.8504 18.1499 14.1104 18.1499 13.2004V3.30039C18.1499 2.39042 17.4099 1.65039 16.4999 1.65039ZM16.4999 13.2004H10.4964L7.4249 15.0426V13.2004H3.2999V3.30039H16.4999V13.2004Z" fill="#999CA0"/>
<path d="M16.4999 1.65039H3.2999C2.38993 1.65039 1.6499 2.39042 1.6499 3.30039V13.2004C1.6499 14.1104 2.38993 14.8504 3.2999 14.8504H5.7749V17.9582L10.9534 14.8504H16.4999C17.4099 14.8504 18.1499 14.1104 18.1499 13.2004V3.30039C18.1499 2.39042 17.4099 1.65039 16.4999 1.65039ZM16.4999 13.2004H10.4964L7.4249 15.0426V13.2004H3.2999V3.30039H16.4999V13.2004Z" fill="#999CA0"/>
<path d="M9.0752 4.94922H10.7252V9.07422H9.0752V4.94922ZM9.0752 9.89922H10.7252V11.5492H9.0752V9.89922Z" fill="#999CA0"/>
<path d="M9.0752 4.94922H10.7252V9.07422H9.0752V4.94922ZM9.0752 9.89922H10.7252V11.5492H9.0752V9.89922Z" fill="#999CA0"/>
</svg>
