<svg width="20" height="20" viewBox="0 0 20 20" fill="none" xmlns="http://www.w3.org/2000/svg">
<path d="M5.83984 5.83594H5.00651C4.56448 5.83594 4.14056 6.01154 3.828 6.32411C3.51544 6.63668 3.33984 7.06062 3.33984 7.50267V15.0029C3.33984 15.445 3.51544 15.8689 3.828 16.1815C4.14056 16.4941 4.56448 16.6697 5.00651 16.6697H12.5065C12.9485 16.6697 13.3725 16.4941 13.685 16.1815C13.9976 15.8689 14.1732 15.445 14.1732 15.0029V14.1696" stroke="#CCCCCC" stroke-width="1.96962" stroke-linecap="round" stroke-linejoin="round"/>
<path d="M13.3372 4.17072L15.8372 6.67082M16.9914 5.49161C17.3196 5.16339 17.504 4.71823 17.504 4.25406C17.504 3.78989 17.3196 3.34473 16.9914 3.01651C16.6632 2.6883 16.2181 2.50391 15.7539 2.50391C15.2898 2.50391 14.8446 2.6883 14.5164 3.01651L7.50391 10.0043V12.5044H10.0039L16.9914 5.49161Z" stroke="#CCCCCC" stroke-width="1.96962" stroke-linecap="round" stroke-linejoin="round"/>
</svg>
