<svg width="16" height="16" viewBox="0 0 16 16" fill="none" xmlns="http://www.w3.org/2000/svg">
<path fill-rule="evenodd" clip-rule="evenodd" d="M7.99429 9.10847C7.83108 9.10847 7.67456 9.04364 7.55915 8.92823C7.44374 8.81282 7.37891 8.6563 7.37891 8.49309V5.41617C7.37891 5.25296 7.44374 5.09643 7.55915 4.98102C7.67456 4.86562 7.83108 4.80078 7.99429 4.80078C8.1575 4.80078 8.31403 4.86562 8.42943 4.98102C8.54484 5.09643 8.60968 5.25296 8.60968 5.41617V8.49309C8.60968 8.6563 8.54484 8.81282 8.42943 8.92823C8.31403 9.04364 8.1575 9.10847 7.99429 9.10847Z" fill="#EB7F7F"/>
<path d="M7.3457 10.4371C7.3457 10.2652 7.41397 10.1004 7.5355 9.97886C7.65702 9.85733 7.82184 9.78906 7.9937 9.78906C8.16556 9.78906 8.33038 9.85733 8.45191 9.97886C8.57343 10.1004 8.6417 10.2652 8.6417 10.4371C8.6417 10.6089 8.57343 10.7737 8.45191 10.8953C8.33038 11.0168 8.16556 11.0851 7.9937 11.0851C7.82184 11.0851 7.65702 11.0168 7.5355 10.8953C7.41397 10.7737 7.3457 10.6089 7.3457 10.4371Z" fill="#EB7F7F"/>
<path fill-rule="evenodd" clip-rule="evenodd" d="M10.2137 3.47456L13.8297 10.0715C14.7601 11.7693 13.5386 13.8487 11.61 13.8487H4.37799C2.44937 13.8487 1.22722 11.7687 2.15829 10.0709L5.77429 3.47394C6.73798 1.71702 9.24998 1.71702 10.2137 3.47394V3.47456ZM9.10352 4.08994C8.62229 3.21056 7.36568 3.21056 6.88445 4.08994L3.26783 10.6856C2.80199 11.5349 3.41306 12.5743 4.37737 12.5743H11.6094C12.5737 12.5743 13.1848 11.5342 12.7189 10.685L9.10352 4.08994Z" fill="#EB7F7F"/>
</svg>
