<svg width="20" height="20" viewBox="0 0 20 20" fill="none" xmlns="http://www.w3.org/2000/svg">
<mask id="mask0_3059_112853" style="mask-type:luminance" maskUnits="userSpaceOnUse" x="0" y="0" width="20" height="20">
<path d="M10.0003 18.3334C11.0949 18.3348 12.1789 18.1198 13.1901 17.701C14.2014 17.2821 15.1198 16.6675 15.8928 15.8926C16.6678 15.1196 17.2823 14.2011 17.7012 13.1899C18.1201 12.1787 18.335 11.0946 18.3337 10.0001C18.335 8.90554 18.1201 7.82152 17.7012 6.81029C17.2823 5.79907 16.6678 4.88058 15.8928 4.10759C15.1198 3.33265 14.2014 2.7181 13.1901 2.29922C12.1789 1.88034 11.0949 1.6654 10.0003 1.66675C8.90579 1.6654 7.82176 1.88034 6.81054 2.29922C5.79931 2.7181 4.88082 3.33265 4.10783 4.10759C3.3329 4.88058 2.71834 5.79907 2.29946 6.81029C1.88059 7.82152 1.66565 8.90554 1.667 10.0001C1.66565 11.0946 1.88059 12.1787 2.29946 13.1899C2.71834 14.2011 3.3329 15.1196 4.10783 15.8926C4.88082 16.6675 5.79931 17.2821 6.81054 17.701C7.82176 18.1198 8.90579 18.3348 10.0003 18.3334Z" fill="white" stroke="white" stroke-width="1.66667" stroke-linejoin="round"/>
<path d="M6.66699 10L9.16699 12.5L14.167 7.5" stroke="black" stroke-width="1.66667" stroke-linecap="round" stroke-linejoin="round"/>
</mask>
<g mask="url(#mask0_3059_112853)">
<path d="M0 0H20V20H0V0Z" fill="#1BBD61"/>
</g>
</svg>
