<svg width="48" height="48" viewBox="0 0 48 48" fill="none" xmlns="http://www.w3.org/2000/svg">
<g filter="url(#filter0_d_281_2115)">
<rect x="4" y="4" width="40" height="40" rx="12" fill="white"/>
<rect x="4.5" y="4.5" width="39" height="39" rx="11.5" stroke="#2C5CD6" stroke-opacity="0.1"/>
</g>
<mask id="mask0_281_2115" style="mask-type:luminance" maskUnits="userSpaceOnUse" x="13" y="12" width="23" height="23">
<path d="M24.0078 33.9912C25.3213 33.9928 26.6221 33.7349 27.8356 33.2323C29.049 32.7296 30.1512 31.9921 31.0788 31.0622C32.0087 30.1346 32.7462 29.0324 33.2489 27.819C33.7515 26.6055 34.0094 25.3047 34.0078 23.9912C34.0094 22.6778 33.7515 21.3769 33.2489 20.1635C32.7462 18.95 32.0087 17.8478 31.0788 16.9202C30.1512 15.9903 29.049 15.2528 27.8356 14.7502C26.6221 14.2475 25.3213 13.9896 24.0078 13.9912C22.6944 13.9896 21.3935 14.2475 20.1801 14.7502C18.9666 15.2528 17.8644 15.9903 16.9368 16.9202C16.0069 17.8478 15.2694 18.95 14.7668 20.1635C14.2641 21.3769 14.0062 22.6778 14.0078 23.9912C14.0062 25.3047 14.2641 26.6055 14.7668 27.819C15.2694 29.0324 16.0069 30.1346 16.9368 31.0622C17.8644 31.9921 18.9666 32.7296 20.1801 33.2323C21.3935 33.7349 22.6944 33.9928 24.0078 33.9912Z" fill="white" stroke="white" stroke-width="2" stroke-linejoin="round"/>
<path d="M20.0078 23.9912L23.0078 26.9912L29.0078 20.9912" stroke="black" stroke-width="2" stroke-linecap="round" stroke-linejoin="round"/>
</mask>
<g mask="url(#mask0_281_2115)">
<path d="M12.0078 11.9912H36.0078V35.9912H12.0078V11.9912Z" fill="#149935"/>
</g>
<defs>
<filter id="filter0_d_281_2115" x="0" y="0" width="48" height="48" filterUnits="userSpaceOnUse" color-interpolation-filters="sRGB">
<feFlood flood-opacity="0" result="BackgroundImageFix"/>
<feColorMatrix in="SourceAlpha" type="matrix" values="0 0 0 0 0 0 0 0 0 0 0 0 0 0 0 0 0 0 127 0" result="hardAlpha"/>
<feOffset/>
<feGaussianBlur stdDeviation="2"/>
<feComposite in2="hardAlpha" operator="out"/>
<feColorMatrix type="matrix" values="0 0 0 0 0.172549 0 0 0 0 0.360784 0 0 0 0 0.839216 0 0 0 0.1 0"/>
<feBlend mode="normal" in2="BackgroundImageFix" result="effect1_dropShadow_281_2115"/>
<feBlend mode="normal" in="SourceGraphic" in2="effect1_dropShadow_281_2115" result="shape"/>
</filter>
</defs>
</svg>
