<svg width="20" height="20" viewBox="0 0 20 20" fill="none" xmlns="http://www.w3.org/2000/svg">
<path d="M10 6.66797C10 6.66797 10 6.66797 10.6333 5.83464C11.3667 4.86797 12.45 4.16797 13.75 4.16797C15.825 4.16797 17.5 5.84297 17.5 7.91797C17.5 8.69297 17.2667 9.40964 16.8667 10.0013C16.1917 11.0096 10 17.5013 10 17.5013C10 17.5013 3.80833 11.0096 3.13333 10.0013C2.73333 9.40964 2.5 8.69297 2.5 7.91797C2.5 5.84297 4.175 4.16797 6.25 4.16797C7.55 4.16797 8.64167 4.86797 9.36667 5.83464C10 6.66797 10 6.66797 10 6.66797Z" fill="#E75A5A"/>
<path d="M10 6.66797C10 6.66797 10 6.66797 9.36667 5.83464C8.63333 4.86797 7.55 4.16797 6.25 4.16797C4.175 4.16797 2.5 5.84297 2.5 7.91797C2.5 8.69297 2.73333 9.40963 3.13333 10.0013C3.80833 11.0096 10 17.5013 10 17.5013M10 6.66797C10 6.66797 10 6.66797 10.6333 5.83464C11.3667 4.86797 12.45 4.16797 13.75 4.16797C15.825 4.16797 17.5 5.84297 17.5 7.91797C17.5 8.69297 17.2667 9.40963 16.8667 10.0013C16.1917 11.0096 10 17.5013 10 17.5013" stroke="#E75A5A" stroke-width="1.86667" stroke-linecap="round" stroke-linejoin="round"/>
</svg>
