<svg width="261" height="174" viewBox="0 0 261 174" fill="none" xmlns="http://www.w3.org/2000/svg">
<path d="M130.07 28.844C111.517 28.844 97.1328 43.8956 97.1328 61.4953C97.1328 77.0884 107.328 85.4864 107.328 85.4864C108.337 86.3732 108.082 86.8339 107.364 87.5597C107.364 87.5597 97.1328 96.8514 97.1328 111.223C97.1328 130.919 112.917 144.22 130.07 144.22C149.25 144.22 162.891 128.648 162.891 111.453C162.891 96.6529 153.067 87.9165 153.067 87.9165C151.682 86.5855 151.686 86.3643 153.067 85.1473C153.067 85.1473 162.891 76.905 162.891 61.4953C162.891 44.0852 148.88 28.844 130.07 28.844ZM122.738 45.7826C123.676 45.7826 124.499 46.2656 124.977 46.994C125.221 46.6218 125.553 46.3161 125.945 46.1045C126.337 45.893 126.775 45.7823 127.22 45.7826C127.731 45.7825 128.232 45.9285 128.662 46.2032C129.093 46.478 129.436 46.87 129.651 47.3331C129.865 46.8704 130.207 46.4784 130.637 46.2037C131.067 45.9289 131.567 45.7828 132.078 45.7826C132.588 45.7825 133.088 45.9281 133.519 46.2022C133.949 46.4762 134.293 46.8673 134.508 47.3295C134.724 46.8673 135.067 46.4762 135.497 46.2022C135.928 45.9281 136.428 45.7825 136.939 45.7826C137.29 45.7825 137.638 45.8516 137.963 45.9858C138.287 46.12 138.582 46.3168 138.831 46.5649C139.079 46.813 139.277 47.1076 139.411 47.4318C139.545 47.7559 139.615 48.1034 139.614 48.4542C139.614 49.9308 138.417 51.1295 136.939 51.1295C136.428 51.1295 135.928 50.984 135.497 50.71C135.067 50.436 134.724 50.045 134.508 49.5829C134.293 50.045 133.949 50.436 133.519 50.71C133.088 50.984 132.588 51.1295 132.078 51.1295C131.567 51.1293 131.067 50.9832 130.637 50.7085C130.207 50.4338 129.865 50.042 129.651 49.5793C129.436 50.0423 129.093 50.4343 128.662 50.709C128.232 50.9837 127.731 51.1296 127.22 51.1295C126.775 51.1297 126.337 51.0191 125.945 50.8075C125.553 50.596 125.221 50.2903 124.977 49.918C124.788 50.2085 124.544 50.4596 124.259 50.6573C124.615 50.902 124.906 51.2292 125.108 51.6109C125.31 51.9927 125.416 52.4175 125.418 52.8492C125.419 53.2809 125.316 53.7064 125.116 54.0895C124.917 54.4725 124.628 54.8017 124.273 55.0487C124.627 55.295 124.916 55.6229 125.115 56.0046C125.314 56.3863 125.418 56.8105 125.418 57.2409C125.418 57.6714 125.314 58.0955 125.115 58.4772C124.916 58.8589 124.627 59.1869 124.273 59.4332C124.485 59.581 124.672 59.7617 124.833 59.9632C125.103 59.6236 125.451 59.3549 125.849 59.1801C126.246 59.0053 126.68 58.9297 127.113 58.9599C127.546 58.9901 127.965 59.1251 128.334 59.3533C128.703 59.5815 129.011 59.8961 129.231 60.2697C129.468 59.8686 129.805 59.5362 130.21 59.3053C130.615 59.0745 131.073 58.9532 131.539 58.9534C132 58.9533 132.452 59.0717 132.854 59.2972C133.255 59.5227 133.591 59.8477 133.829 60.2408C134.068 59.8477 134.404 59.5227 134.805 59.2972C135.206 59.0717 135.658 58.9533 136.119 58.9534C137.598 58.9534 138.798 60.1488 138.798 61.6251C138.798 62.3345 138.516 63.0147 138.013 63.5164C137.511 64.018 136.829 64.3 136.119 64.3003C135.659 64.3005 135.206 64.1822 134.805 63.9567C134.404 63.7313 134.068 63.4063 133.829 63.0133C133.591 63.4063 133.255 63.7313 132.853 63.9567C132.452 64.1822 132 64.3005 131.539 64.3003C131.073 64.3006 130.615 64.1793 130.21 63.9485C129.806 63.7177 129.468 63.3853 129.232 62.9844C129.012 63.3581 128.704 63.6727 128.335 63.9009C127.966 64.1292 127.546 64.2643 127.113 64.2944C126.68 64.3246 126.246 64.249 125.849 64.0742C125.451 63.8993 125.103 63.6305 124.833 63.2909C124.669 63.496 124.475 63.6758 124.259 63.8245C124.616 64.0702 124.908 64.3989 125.11 64.7824C125.312 65.1658 125.417 65.5925 125.417 66.0257C125.417 66.4588 125.312 66.8855 125.11 67.2689C124.908 67.6524 124.616 67.9811 124.259 68.2268C124.616 68.472 124.908 68.8004 125.11 69.1836C125.312 69.5668 125.418 69.9932 125.418 70.4262C125.418 70.8593 125.313 71.2858 125.111 71.6691C124.909 72.0523 124.616 72.3806 124.259 72.6257C124.542 72.8204 124.784 73.0676 124.974 73.3538C125.234 72.9528 125.597 72.6288 126.026 72.4156C126.455 72.2025 126.932 72.1079 127.41 72.1418C127.888 72.1757 128.347 72.3368 128.741 72.6083C129.135 72.8799 129.449 73.2519 129.65 73.6857C129.864 73.2229 130.207 72.8309 130.637 72.5561C131.067 72.2814 131.567 72.1353 132.078 72.1351C132.588 72.1351 133.088 72.2807 133.519 72.5547C133.949 72.8288 134.293 73.2199 134.508 73.6821C134.724 73.2199 135.067 72.8288 135.497 72.5547C135.928 72.2807 136.428 72.1351 136.939 72.1351C138.417 72.1351 139.614 73.3341 139.614 74.8104C139.615 75.1612 139.545 75.5087 139.411 75.8328C139.277 76.157 139.079 76.4516 138.831 76.6997C138.582 76.9478 138.287 77.1446 137.963 77.2788C137.638 77.413 137.29 77.4821 136.939 77.482C136.428 77.4823 135.928 77.3368 135.497 77.0628C135.067 76.7888 134.723 76.3977 134.508 75.9354C134.293 76.3977 133.95 76.7888 133.519 77.0628C133.088 77.3368 132.588 77.4823 132.078 77.482C131.567 77.482 131.067 77.336 130.637 77.0613C130.207 76.7866 129.865 76.3946 129.651 75.9318C129.436 76.3949 129.093 76.7871 128.662 77.0618C128.232 77.3365 127.731 77.4823 127.22 77.482C126.777 77.4821 126.34 77.372 125.95 77.1618C125.56 76.9516 125.228 76.6478 124.984 76.2778C124.742 76.652 124.409 76.9595 124.017 77.1725C123.624 77.3854 123.185 77.4969 122.738 77.4968C122.167 77.497 121.611 77.3149 121.151 76.977C120.692 76.6391 120.352 76.1633 120.183 75.619C120.013 75.0747 120.023 74.4906 120.209 73.952C120.396 73.4135 120.751 72.9487 121.221 72.6257C120.864 72.3806 120.571 72.0523 120.369 71.6691C120.167 71.2858 120.062 70.8593 120.062 70.4262C120.062 69.9932 120.168 69.5668 120.37 69.1836C120.572 68.8004 120.864 68.472 121.221 68.2268C120.864 67.9811 120.572 67.6524 120.37 67.2689C120.168 66.8855 120.063 66.4588 120.063 66.0257C120.063 65.5925 120.168 65.1658 120.37 64.7824C120.572 64.3989 120.864 64.0702 121.221 63.8245C120.865 63.5799 120.574 63.2526 120.372 62.8709C120.17 62.4892 120.064 62.0643 120.062 61.6326C120.061 61.201 120.164 60.7754 120.364 60.3924C120.563 60.0093 120.852 59.6802 121.207 59.4332C120.853 59.1869 120.564 58.8589 120.365 58.4772C120.166 58.0955 120.062 57.6714 120.062 57.2409C120.062 56.8105 120.166 56.3863 120.365 56.0046C120.564 55.6229 120.853 55.295 121.207 55.0487C120.852 54.8017 120.563 54.4725 120.364 54.0895C120.164 53.7064 120.061 53.2809 120.062 52.8492C120.064 52.4175 120.17 51.9927 120.372 51.6109C120.574 51.2292 120.865 50.902 121.221 50.6573C120.864 50.4115 120.571 50.0825 120.369 49.6987C120.167 49.3149 120.062 48.8878 120.062 48.4542C120.062 48.1034 120.131 47.7559 120.266 47.4318C120.4 47.1076 120.597 46.8131 120.846 46.565C121.094 46.3169 121.389 46.1202 121.714 45.986C122.039 45.8518 122.387 45.7828 122.738 45.7829V45.7826ZM122.738 95.5778C123.676 95.5778 124.499 96.0608 124.977 96.7896C125.221 96.4174 125.553 96.1116 125.945 95.9001C126.337 95.6886 126.775 95.5779 127.22 95.5782C127.731 95.5781 128.232 95.724 128.662 95.9987C129.093 96.2734 129.436 96.6654 129.651 97.1284C129.865 96.6657 130.207 96.2738 130.637 95.9991C131.067 95.7244 131.567 95.5783 132.078 95.5782C132.588 95.5781 133.088 95.7236 133.519 95.9976C133.949 96.2716 134.293 96.6626 134.508 97.1248C134.724 96.6626 135.067 96.2716 135.497 95.9976C135.928 95.7236 136.428 95.5781 136.939 95.5782C138.417 95.5782 139.614 96.7771 139.614 98.2534C139.615 98.6043 139.545 98.9517 139.411 99.2759C139.277 99.6001 139.079 99.8946 138.831 100.143C138.582 100.391 138.287 100.588 137.963 100.722C137.638 100.856 137.29 100.925 136.939 100.925C136.428 100.925 135.928 100.78 135.497 100.506C135.067 100.232 134.724 99.8406 134.508 99.3784C134.293 99.8406 133.949 100.232 133.519 100.506C133.088 100.78 132.588 100.925 132.078 100.925C131.567 100.925 131.067 100.779 130.637 100.504C130.207 100.229 129.865 99.8375 129.651 99.3748C129.436 99.8379 129.093 100.23 128.662 100.505C128.232 100.779 127.731 100.925 127.22 100.925C126.775 100.925 126.337 100.815 125.945 100.603C125.553 100.392 125.221 100.086 124.977 99.7136C124.789 100.004 124.546 100.255 124.262 100.453C124.618 100.698 124.909 101.026 125.11 101.408C125.312 101.79 125.417 102.215 125.418 102.647C125.418 103.078 125.314 103.504 125.114 103.886C124.914 104.269 124.625 104.598 124.27 104.844C124.624 105.09 124.913 105.418 125.113 105.799C125.313 106.181 125.418 106.606 125.418 107.036C125.418 107.467 125.313 107.891 125.113 108.273C124.913 108.655 124.624 108.983 124.27 109.228C124.482 109.377 124.672 109.556 124.833 109.759C125.103 109.419 125.451 109.15 125.849 108.976C126.246 108.801 126.68 108.725 127.113 108.755C127.546 108.786 127.965 108.921 128.334 109.149C128.703 109.377 129.011 109.692 129.231 110.065C129.468 109.664 129.805 109.332 130.21 109.101C130.615 108.87 131.073 108.749 131.539 108.749C132 108.749 132.452 108.867 132.853 109.093C133.255 109.318 133.591 109.643 133.829 110.036C134.068 109.643 134.404 109.318 134.805 109.093C135.206 108.867 135.659 108.749 136.119 108.749C136.829 108.749 137.511 109.031 138.013 109.533C138.516 110.035 138.798 110.715 138.798 111.424C138.798 112.901 137.598 114.096 136.119 114.096C135.659 114.096 135.206 113.978 134.805 113.752C134.404 113.527 134.068 113.202 133.829 112.809C133.591 113.202 133.255 113.527 132.853 113.752C132.452 113.978 132 114.096 131.539 114.096C131.073 114.096 130.615 113.975 130.21 113.744C129.806 113.513 129.468 113.181 129.232 112.78C129.012 113.154 128.704 113.468 128.335 113.697C127.966 113.925 127.546 114.06 127.113 114.09C126.68 114.12 126.246 114.045 125.849 113.87C125.451 113.695 125.103 113.426 124.833 113.087C124.669 113.293 124.475 113.474 124.259 113.624C124.616 113.869 124.908 114.197 125.11 114.58C125.312 114.963 125.417 115.389 125.418 115.822C125.418 116.255 125.313 116.681 125.112 117.064C124.91 117.448 124.619 117.776 124.262 118.022C124.619 118.268 124.91 118.597 125.112 118.98C125.313 119.364 125.418 119.79 125.418 120.223C125.417 120.655 125.312 121.081 125.11 121.464C124.908 121.847 124.616 122.176 124.259 122.421C124.542 122.617 124.785 122.865 124.974 123.153C125.234 122.752 125.597 122.428 126.026 122.215C126.455 122.002 126.932 121.907 127.41 121.941C127.888 121.975 128.347 122.136 128.741 122.408C129.135 122.679 129.449 123.051 129.65 123.485C129.864 123.022 130.207 122.63 130.637 122.355C131.067 122.081 131.567 121.934 132.078 121.934C132.588 121.934 133.088 122.08 133.519 122.354C133.949 122.628 134.293 123.019 134.508 123.481C134.724 123.019 135.067 122.628 135.497 122.354C135.928 122.08 136.428 121.934 136.939 121.934C137.29 121.934 137.638 122.003 137.963 122.138C138.287 122.272 138.582 122.469 138.831 122.717C139.079 122.965 139.277 123.259 139.411 123.583C139.545 123.908 139.615 124.255 139.614 124.606C139.614 126.083 138.417 127.281 136.939 127.281C136.428 127.281 135.928 127.136 135.497 126.862C135.067 126.588 134.724 126.197 134.508 125.735C134.293 126.197 133.949 126.588 133.519 126.862C133.088 127.136 132.588 127.281 132.078 127.281C131.567 127.281 131.067 127.135 130.637 126.86C130.207 126.586 129.865 126.194 129.651 125.731C129.436 126.194 129.093 126.586 128.662 126.861C128.232 127.135 127.731 127.281 127.22 127.281C126.777 127.281 126.34 127.171 125.95 126.961C125.56 126.751 125.228 126.447 124.984 126.077C124.742 126.451 124.409 126.759 124.017 126.972C123.624 127.185 123.185 127.296 122.738 127.296C121.259 127.296 120.062 126.097 120.062 124.62C120.062 124.187 120.167 123.761 120.369 123.378C120.571 122.994 120.864 122.666 121.221 122.421C120.864 122.176 120.572 121.847 120.37 121.464C120.168 121.081 120.063 120.655 120.062 120.223C120.062 119.79 120.167 119.364 120.368 118.98C120.57 118.597 120.861 118.268 121.218 118.022C120.861 117.776 120.57 117.448 120.368 117.064C120.167 116.681 120.062 116.255 120.062 115.822C120.063 115.389 120.168 114.963 120.37 114.58C120.572 114.197 120.864 113.869 121.221 113.624C120.864 113.379 120.571 113.05 120.369 112.667C120.167 112.284 120.062 111.857 120.062 111.424C120.062 110.993 120.166 110.568 120.366 110.185C120.566 109.803 120.856 109.475 121.211 109.228C120.856 108.983 120.567 108.655 120.367 108.273C120.167 107.891 120.062 107.467 120.062 107.036C120.062 106.606 120.167 106.181 120.367 105.799C120.567 105.418 120.856 105.09 121.211 104.844C120.856 104.598 120.566 104.269 120.366 103.886C120.166 103.504 120.062 103.078 120.063 102.647C120.063 102.215 120.169 101.79 120.37 101.408C120.571 101.026 120.862 100.698 121.218 100.453C120.861 100.207 120.57 99.8786 120.368 99.4954C120.167 99.1123 120.062 98.6861 120.062 98.2534C120.062 96.7771 121.259 95.5778 122.738 95.5778Z" fill="#1D9F9E"/>
</svg>
