<svg width="66" height="116" viewBox="0 0 66 116" fill="none" xmlns="http://www.w3.org/2000/svg">
<path d="M32.9368 0C14.3844 0 0 15.0516 0 32.6513C0 48.2444 10.1951 56.6424 10.1951 56.6424C11.2038 57.5292 10.9488 57.9899 10.2313 58.7157C10.2313 58.7157 0 68.0074 0 82.3785C0 102.076 15.7838 115.376 32.9368 115.376C52.1168 115.376 65.7578 99.8041 65.7578 82.6092C65.7578 67.8089 55.9346 59.0725 55.9346 59.0725C54.5497 57.7415 54.5533 57.5203 55.9346 56.3033C55.9346 56.3033 65.7578 48.061 65.7578 32.6513C65.7578 15.2412 51.7469 0 32.9368 0ZM25.6054 16.9386C26.543 16.9386 27.3662 17.4216 27.8444 18.15C28.0878 17.7778 28.4204 17.4721 28.812 17.2605C29.2037 17.049 29.642 16.9383 30.0873 16.9386C30.5984 16.9385 31.0989 17.0845 31.5296 17.3592C31.9603 17.634 32.3032 18.0261 32.5178 18.4891C32.7319 18.0264 33.0742 17.6344 33.5043 17.3597C33.9343 17.0849 34.4342 16.9388 34.9448 16.9386C35.4554 16.9386 35.9554 17.0841 36.386 17.3582C36.8166 17.6322 37.1598 18.0233 37.3753 18.4855C37.5908 18.0233 37.934 17.6322 38.3646 17.3582C38.7952 17.0841 39.2952 16.9386 39.8058 16.9386C40.1573 16.9385 40.5053 17.0076 40.83 17.1418C41.1547 17.276 41.4497 17.4728 41.6982 17.7209C41.9467 17.969 42.1437 18.2636 42.2782 18.5878C42.4126 18.9119 42.4817 19.2594 42.4816 19.6102C42.4816 21.0868 41.2846 22.2855 39.8058 22.2855C39.2952 22.2855 38.7952 22.14 38.3646 21.866C37.9341 21.5921 37.5908 21.201 37.3753 20.7389C37.1598 21.201 36.8165 21.5921 36.3859 21.866C35.9554 22.14 35.4554 22.2855 34.9448 22.2855C34.4342 22.2853 33.9344 22.1392 33.5043 21.8645C33.0743 21.5898 32.732 21.198 32.5178 20.7353C32.3031 21.1983 31.9602 21.5903 31.5295 21.865C31.0988 22.1397 30.5984 22.2856 30.0873 22.2855C29.642 22.2857 29.2037 22.1751 28.812 21.9635C28.4204 21.752 28.0878 21.4463 27.8444 21.074C27.655 21.3645 27.411 21.6156 27.1259 21.8133C27.4821 22.058 27.7736 22.3852 27.9755 22.7669C28.1773 23.1487 28.2835 23.5736 28.2849 24.0052C28.2863 24.4369 28.183 24.8624 27.9836 25.2455C27.7843 25.6285 27.495 25.9577 27.1404 26.2047C27.494 26.451 27.7827 26.779 27.982 27.1607C28.1813 27.5424 28.2853 27.9665 28.2851 28.3969C28.2853 28.8274 28.1813 29.2515 27.982 29.6332C27.7827 30.0149 27.494 30.3429 27.1404 30.5892C27.352 30.737 27.5393 30.9177 27.6999 31.1192C27.9698 30.7797 28.3185 30.5109 28.7157 30.3361C29.113 30.1613 29.547 30.0857 29.9801 30.1159C30.4132 30.1461 30.8324 30.2811 31.2015 30.5093C31.5706 30.7375 31.8785 31.0521 32.0985 31.4257C32.3351 31.0246 32.6725 30.6922 33.0774 30.4613C33.4822 30.2305 33.9404 30.1092 34.4067 30.1095C34.867 30.1093 35.3196 30.2277 35.7207 30.4532C36.1218 30.6787 36.4578 31.0037 36.6963 31.3968C36.9348 31.0037 37.2709 30.6787 37.672 30.4532C38.0731 30.2277 38.5257 30.1093 38.986 30.1095C40.4647 30.1095 41.6657 31.3048 41.6657 32.7811C41.6653 33.4905 41.3829 34.1707 40.8804 34.6724C40.378 35.174 39.6966 35.456 38.986 35.4563C38.5257 35.4565 38.0731 35.3382 37.672 35.1127C37.2709 34.8873 36.9349 34.5623 36.6963 34.1693C36.4578 34.5623 36.1217 34.8873 35.7206 35.1127C35.3195 35.3382 34.867 35.4565 34.4067 35.4563C33.9405 35.4566 33.4824 35.3353 33.0776 35.1045C32.6728 34.8737 32.3355 34.5414 32.0989 34.1404C31.8789 34.5141 31.571 34.8287 31.2018 35.0569C30.8327 35.2852 30.4134 35.4203 29.9803 35.4504C29.5471 35.4806 29.1131 35.405 28.7158 35.2302C28.3185 35.0553 27.9698 34.7865 27.6999 34.4469C27.5359 34.652 27.3424 34.8318 27.1259 34.9805C27.4832 35.2262 27.7754 35.555 27.9772 35.9384C28.1791 36.3218 28.2845 36.7485 28.2845 37.1817C28.2845 37.6148 28.1791 38.0415 27.9772 38.4249C27.7754 38.8084 27.4832 39.1371 27.1259 39.3828C27.4833 39.628 27.7756 39.9564 27.9776 40.3396C28.1795 40.7228 28.285 41.1493 28.2851 41.5822C28.2853 42.0153 28.1799 42.4418 27.9779 42.8251C27.7759 43.2083 27.4835 43.5366 27.1259 43.7817C27.4087 43.9764 27.6514 44.2236 27.8407 44.5098C28.1013 44.1088 28.4647 43.7848 28.8932 43.5717C29.3217 43.3585 29.7997 43.2639 30.2772 43.2978C30.7548 43.3317 31.2145 43.4928 31.6085 43.7643C32.0026 44.0359 32.3164 44.4079 32.5175 44.8417C32.7316 44.3789 33.074 43.9869 33.5041 43.7121C33.9342 43.4374 34.4341 43.2913 34.9448 43.2911C35.4554 43.2911 35.9554 43.4367 36.386 43.7107C36.8166 43.9848 37.1598 44.3759 37.3753 44.8381C37.5908 44.3759 37.934 43.9848 38.3646 43.7107C38.7952 43.4367 39.2952 43.2911 39.8058 43.2911C41.2846 43.2911 42.4816 44.4901 42.4816 45.9664C42.4817 46.3172 42.4126 46.6647 42.2782 46.9889C42.1437 47.313 41.9467 47.6076 41.6982 47.8557C41.4497 48.1038 41.1547 48.3006 40.83 48.4348C40.5053 48.5691 40.1573 48.6381 39.8058 48.638C39.2952 48.6383 38.7951 48.4929 38.3645 48.2188C37.9339 47.9448 37.5907 47.5537 37.3753 47.0914C37.1599 47.5537 36.8167 47.9448 36.3861 48.2188C35.9555 48.4929 35.4554 48.6383 34.9448 48.638C34.4342 48.638 33.9343 48.492 33.5042 48.2173C33.0741 47.9426 32.7318 47.5506 32.5178 47.0878C32.3033 47.5509 31.9604 47.9431 31.5297 48.2178C31.0989 48.4925 30.5984 48.6383 30.0873 48.638C29.6439 48.6381 29.2074 48.528 28.8171 48.3178C28.4268 48.1076 28.0951 47.8038 27.8516 47.4338C27.6088 47.808 27.2761 48.1155 26.8838 48.3285C26.4914 48.5414 26.0519 48.6529 25.6054 48.6528C25.0345 48.653 24.4785 48.4709 24.0187 48.133C23.5589 47.7952 23.2194 47.3193 23.0499 46.775C22.8804 46.2307 22.8898 45.6466 23.0766 45.108C23.2635 44.5695 23.6181 44.1047 24.0885 43.7817C23.7309 43.5366 23.4384 43.2083 23.2365 42.8251C23.0345 42.4418 22.9291 42.0153 22.9293 41.5822C22.9293 41.1493 23.0349 40.7228 23.2368 40.3396C23.4388 39.9564 23.7311 39.628 24.0885 39.3828C23.7311 39.1371 23.439 38.8084 23.2371 38.4249C23.0353 38.0415 22.9298 37.6148 22.9298 37.1817C22.9298 36.7485 23.0353 36.3218 23.2371 35.9384C23.439 35.555 23.7311 35.2262 24.0885 34.9805C23.7323 34.7359 23.4408 34.4087 23.2389 34.0269C23.0371 33.6452 22.9309 33.2203 22.9295 32.7886C22.928 32.357 23.0314 31.9314 23.2307 31.5484C23.4301 31.1653 23.7194 30.8362 24.074 30.5892C23.7204 30.3429 23.4316 30.0149 23.2323 29.6332C23.033 29.2515 22.9291 28.8274 22.9293 28.3969C22.9291 27.9665 23.033 27.5424 23.2323 27.1607C23.4316 26.779 23.7204 26.451 24.074 26.2047C23.7194 25.9577 23.4301 25.6285 23.2307 25.2455C23.0314 24.8624 22.928 24.4369 22.9295 24.0052C22.9309 23.5736 23.0371 23.1487 23.2389 22.7669C23.4408 22.3852 23.7323 22.058 24.0885 21.8133C23.7308 21.5675 23.4383 21.2385 23.2364 20.8547C23.0344 20.4709 22.9291 20.0438 22.9293 19.6102C22.9292 19.2594 22.9984 18.9119 23.1329 18.5878C23.2673 18.2636 23.4644 17.9691 23.7129 17.721C23.9615 17.4729 24.2565 17.2762 24.5812 17.142C24.9059 17.0078 25.2539 16.9388 25.6054 16.9389V16.9386ZM25.6054 66.7338C26.543 66.7338 27.3662 67.2169 27.8444 67.9456C28.0878 67.5734 28.4204 67.2676 28.812 67.0561C29.2037 66.8446 29.642 66.7339 30.0873 66.7342C30.5984 66.7341 31.0988 66.88 31.5295 67.1547C31.9602 67.4294 32.3031 67.8214 32.5178 68.2844C32.732 67.8217 33.0743 67.4298 33.5043 67.1551C33.9344 66.8804 34.4342 66.7344 34.9448 66.7342C35.4554 66.7341 35.9554 66.8796 36.3859 67.1536C36.8165 67.4276 37.1598 67.8186 37.3753 68.2808C37.5908 67.8186 37.9341 67.4276 38.3646 67.1536C38.7952 66.8796 39.2952 66.7341 39.8058 66.7342C41.2846 66.7342 42.4816 67.9331 42.4816 69.4094C42.4817 69.7603 42.4126 70.1077 42.2782 70.4319C42.1437 70.7561 41.9467 71.0506 41.6982 71.2987C41.4497 71.5468 41.1547 71.7436 40.83 71.8779C40.5053 72.0121 40.1573 72.0811 39.8058 72.081C39.2952 72.0811 38.7952 71.9356 38.3646 71.6616C37.9341 71.3876 37.5908 70.9966 37.3753 70.5345C37.1598 70.9966 36.8165 71.3876 36.3859 71.6616C35.9554 71.9356 35.4554 72.0811 34.9448 72.081C34.4342 72.0809 33.9344 71.9348 33.5043 71.6601C33.0743 71.3854 32.732 70.9936 32.5178 70.5308C32.3031 70.9939 31.9602 71.3859 31.5295 71.6606C31.0988 71.9352 30.5984 72.0812 30.0873 72.081C29.642 72.0813 29.2037 71.9707 28.812 71.7591C28.4204 71.5476 28.0878 71.2418 27.8444 70.8696C27.6559 71.1596 27.4132 71.4106 27.1295 71.6089C27.4853 71.8541 27.7763 72.1818 27.9775 72.5639C28.1787 72.946 28.2842 73.371 28.2849 73.8027C28.2856 74.2343 28.1815 74.6597 27.9816 75.0425C27.7816 75.4252 27.4918 75.7538 27.1368 76.0003C27.4911 76.246 27.7807 76.5737 27.9806 76.9555C28.1806 77.3372 28.285 77.7616 28.285 78.1923C28.285 78.6231 28.1806 79.0475 27.9806 79.4292C27.7807 79.8109 27.4911 80.1387 27.1368 80.3844C27.3492 80.533 27.5389 80.7117 27.6999 80.9147C27.9698 80.5752 28.3185 80.3065 28.7157 80.1317C29.113 79.9569 29.547 79.8813 29.9801 79.9115C30.4132 79.9417 30.8324 80.0767 31.2015 80.3049C31.5706 80.5331 31.8785 80.8476 32.0985 81.2213C32.3351 80.8202 32.6725 80.4878 33.0774 80.2569C33.4822 80.026 33.9404 79.9048 34.4067 79.905C34.867 79.9048 35.3195 80.0232 35.7206 80.2486C36.1217 80.4741 36.4578 80.799 36.6963 81.192C36.9349 80.799 37.2709 80.4741 37.672 80.2486C38.0731 80.0232 38.5257 79.9048 38.986 79.905C39.6966 79.9054 40.378 80.1873 40.8804 80.689C41.3829 81.1906 41.6653 81.8709 41.6657 82.5803C41.6657 84.0569 40.4647 85.2519 38.986 85.2519C38.5257 85.2521 38.0731 85.1338 37.672 84.9083C37.2709 84.6829 36.9349 84.3579 36.6963 83.9649C36.4578 84.3579 36.1217 84.6829 35.7206 84.9083C35.3195 85.1338 34.867 85.2521 34.4067 85.2519C33.9405 85.2522 33.4824 85.1309 33.0776 84.9001C32.6728 84.6693 32.3355 84.3369 32.0989 83.936C31.8789 84.3097 31.571 84.6243 31.2018 84.8525C30.8327 85.0808 30.4134 85.2159 29.9803 85.246C29.5471 85.2762 29.1131 85.2006 28.7158 85.0258C28.3185 84.8509 27.9698 84.5821 27.6999 84.2425C27.5361 84.4488 27.3426 84.6298 27.1259 84.7797C27.483 85.0251 27.775 85.3533 27.9768 85.7363C28.1787 86.1192 28.2844 86.5454 28.2847 86.9781C28.2851 87.4108 28.1801 87.8372 27.9789 88.2204C27.7777 88.6037 27.4862 88.9324 27.1295 89.1784C27.4862 89.4243 27.7777 89.753 27.9789 90.1363C28.1801 90.5195 28.2851 90.9459 28.2847 91.3786C28.2844 91.8113 28.1787 92.2375 27.9768 92.6204C27.775 93.0034 27.483 93.3316 27.1259 93.577C27.409 93.7729 27.6517 94.0215 27.8407 94.309C28.1013 93.908 28.4647 93.584 28.8932 93.3708C29.3217 93.1577 29.7997 93.0631 30.2772 93.097C30.7548 93.1309 31.2145 93.292 31.6085 93.5635C32.0026 93.8351 32.3164 94.2071 32.5175 94.6409C32.7316 94.1781 33.074 93.7861 33.5041 93.5113C33.9342 93.2366 34.4341 93.0905 34.9448 93.0903C35.4554 93.0903 35.9554 93.2359 36.386 93.5099C36.8166 93.784 37.1598 94.1751 37.3753 94.6373C37.5908 94.1751 37.934 93.784 38.3646 93.5099C38.7952 93.2359 39.2952 93.0903 39.8058 93.0903C40.1573 93.0902 40.5053 93.1593 40.83 93.2935C41.1547 93.4278 41.4497 93.6246 41.6982 93.8727C41.9467 94.1208 42.1437 94.4153 42.2782 94.7395C42.4126 95.0637 42.4817 95.4111 42.4816 95.762C42.4816 97.2386 41.2846 98.4372 39.8058 98.4372C39.2952 98.4373 38.7952 98.2918 38.3646 98.0178C37.9341 97.7438 37.5908 97.3527 37.3753 96.8906C37.1598 97.3527 36.8165 97.7438 36.3859 98.0178C35.9554 98.2918 35.4554 98.4373 34.9448 98.4372C34.4342 98.437 33.9344 98.291 33.5043 98.0163C33.0743 97.7416 32.732 97.3497 32.5178 96.887C32.3031 97.35 31.9602 97.742 31.5295 98.0167C31.0988 98.2914 30.5984 98.4373 30.0873 98.4372C29.6439 98.4373 29.2074 98.3272 28.8171 98.117C28.4268 97.9068 28.0951 97.603 27.8516 97.233C27.6088 97.6072 27.2761 97.9147 26.8838 98.1277C26.4914 98.3406 26.0519 98.4521 25.6054 98.452C24.1267 98.452 22.9293 97.2527 22.9293 95.7764C22.9291 95.3434 23.0345 94.9168 23.2365 94.5336C23.4384 94.1504 23.7309 93.822 24.0885 93.577C23.7314 93.3316 23.4394 93.0034 23.2375 92.6204C23.0357 92.2375 22.93 91.8113 22.9297 91.3786C22.9293 90.9459 23.0343 90.5195 23.2355 90.1363C23.4367 89.753 23.7282 89.4243 24.0849 89.1784C23.7282 88.9324 23.4367 88.6037 23.2355 88.2204C23.0343 87.8372 22.9293 87.4108 22.9297 86.9781C22.93 86.5454 23.0357 86.1192 23.2375 85.7363C23.4394 85.3533 23.7314 85.0251 24.0885 84.7797C23.7309 84.5347 23.4384 84.2063 23.2365 83.8231C23.0345 83.4399 22.9291 83.0133 22.9293 82.5803C22.9291 82.1489 23.0335 81.7239 23.2335 81.3415C23.4335 80.9591 23.7232 80.6308 24.0779 80.3844C23.7236 80.1387 23.434 79.8109 23.2341 79.4292C23.0341 79.0475 22.9297 78.6231 22.9297 78.1923C22.9297 77.7616 23.0341 77.3372 23.2341 76.9555C23.434 76.5737 23.7236 76.246 24.0779 76.0003C23.723 75.7538 23.4331 75.4252 23.2331 75.0425C23.0332 74.6597 22.9291 74.2343 22.9298 73.8027C22.9305 73.371 23.036 72.946 23.2372 72.5639C23.4384 72.1818 23.7294 71.8541 24.0852 71.6089C23.7285 71.3631 23.437 71.0346 23.2356 70.6514C23.0343 70.2683 22.9292 69.8421 22.9293 69.4094C22.9293 67.9331 24.1267 66.7338 25.6054 66.7338Z" fill="#1D9F9E"/>
</svg>
