<svg width="277" height="185" viewBox="0 0 277 185" fill="none" xmlns="http://www.w3.org/2000/svg">
<path d="M84.3179 92.1285C84.3179 106.607 72.5849 118.345 58.1068 118.345C43.6283 118.345 31.8906 106.607 31.8906 92.1285C31.8906 77.6502 43.6283 65.9124 58.1068 65.9124C72.5851 65.9124 84.3179 77.6502 84.3179 92.1285Z" fill="#EE3023"/>
<path d="M58.3148 106.746C51.1142 106.771 43.6195 100.625 43.5861 90.7509C43.562 84.2245 47.0876 77.9391 51.5861 74.2111C55.9786 70.5795 61.9945 68.2435 67.4467 68.2241C68.1499 68.2241 68.8868 68.2819 69.3348 68.436C64.5665 69.4234 60.7711 73.8643 60.7856 78.8975C60.7856 79.066 60.7999 79.2442 60.8191 79.3261C68.8 81.272 72.422 86.0884 72.4461 92.7495C72.4653 99.4156 67.2062 106.718 58.3148 106.746Z" fill="white"/>
<path d="M101.249 102.985L93.2344 83.8587H98.4701L103.47 96.5598L108.315 83.8587H113.314L105.536 102.985L101.249 102.985ZM127.263 93.3231C127.263 92.5283 127.171 91.7721 126.984 91.0545C126.8 90.3369 126.521 89.7203 126.15 89.205C125.779 88.6848 125.331 88.2754 124.802 87.9719C124.272 87.6638 123.651 87.5096 122.938 87.5096C122.225 87.5096 121.599 87.6638 121.074 87.9719C120.544 88.2754 120.091 88.6848 119.725 89.205C119.354 89.7203 119.075 90.3369 118.892 91.0545C118.704 91.7722 118.612 92.5283 118.612 93.3232C118.612 94.1467 118.704 94.9126 118.892 95.6158C119.075 96.319 119.344 96.9354 119.701 97.4652C120.057 97.9951 120.51 98.4141 121.054 98.7224C121.594 99.0257 122.225 99.1799 122.938 99.1799C123.651 99.1799 124.272 99.0257 124.802 98.7224C125.331 98.4141 125.779 97.9951 126.15 97.4652C126.521 96.9354 126.801 96.3188 126.983 95.6158C127.171 94.9126 127.263 94.1467 127.263 93.3231ZM132.103 93.3441C132.103 94.5915 131.911 95.8149 131.53 97.019C131.145 98.2231 130.577 99.2972 129.82 100.251C129.069 101.205 128.115 101.97 126.964 102.553C125.813 103.136 124.469 103.425 122.938 103.425C121.401 103.425 120.057 103.136 118.911 102.553C117.76 101.97 116.806 101.205 116.05 100.251C115.299 99.2972 114.73 98.2231 114.345 97.019C113.965 95.8149 113.772 94.5915 113.772 93.3441C113.772 92.1013 113.965 90.8877 114.345 89.6931C114.73 88.5036 115.299 87.4391 116.05 86.4999C116.806 85.5607 117.76 84.8093 118.911 84.2409C120.057 83.6726 121.401 83.3836 122.938 83.3836C124.469 83.3836 125.808 83.6728 126.945 84.2409C128.082 84.8093 129.035 85.5607 129.801 86.4999C130.572 87.4391 131.145 88.5036 131.53 89.6931C131.911 90.8877 132.103 92.1013 132.103 93.3441ZM146.885 88.0683C145.936 87.6974 145.055 87.5096 144.236 87.5096C143.398 87.5096 142.671 87.6735 142.069 87.9912C141.462 88.3089 140.961 88.7378 140.566 89.2821C140.171 89.8264 139.877 90.438 139.68 91.1171C139.481 91.796 139.38 92.5 139.381 93.2074C139.381 94.0022 139.468 94.7632 139.641 95.4953C139.81 96.2226 140.075 96.8633 140.431 97.4074C140.783 97.9517 141.231 98.39 141.77 98.7224C142.31 99.0498 142.95 99.2185 143.687 99.2185C144.294 99.2185 144.91 99.0499 145.541 98.7224C146.172 98.39 146.62 97.9951 146.885 97.5472V88.0683ZM147.28 102.985L147.083 101.521C146.635 102.022 146.042 102.465 145.301 102.845C144.564 103.231 143.692 103.423 142.69 103.423C141.375 103.423 140.21 103.144 139.213 102.59C138.206 102.036 137.363 101.294 136.679 100.37C135.995 99.4448 135.47 98.3707 135.114 97.1523C134.762 95.9384 134.584 94.6669 134.584 93.3423C134.583 92.1047 134.768 90.874 135.133 89.6914C135.504 88.5018 136.063 87.4374 136.814 86.4982C137.57 85.5589 138.509 84.8075 139.646 84.2392C140.778 83.6709 142.112 83.382 143.639 83.382C144.641 83.382 145.724 83.5697 146.885 83.9358V76.5183H151.803V102.985H147.28ZM165.655 94.0166C165.125 94.0445 164.576 94.094 164.017 94.1565C163.483 94.2202 162.951 94.3069 162.423 94.4165C161.354 94.6282 160.617 94.9897 160.203 95.5051C159.793 96.0253 159.586 96.5839 159.586 97.1955C159.586 97.8265 159.817 98.3371 160.285 98.7224C160.752 99.1028 161.407 99.2956 162.259 99.2956C162.9 99.2966 163.534 99.162 164.118 98.9007C164.716 98.6356 165.231 98.3034 165.655 97.9085V94.0166ZM166.05 102.97L165.857 101.54C165.323 102.128 164.648 102.59 163.825 102.922C163.001 103.255 162.1 103.423 161.118 103.423C160.294 103.423 159.5 103.283 158.748 103.004C157.987 102.73 157.318 102.33 156.735 101.815C156.152 101.299 155.68 100.668 155.324 99.912C154.962 99.1558 154.784 98.3034 154.784 97.3497C154.784 96.4009 154.967 95.5578 155.343 94.8306C155.714 94.1034 156.215 93.4916 156.855 92.986C157.491 92.4851 158.223 92.0756 159.047 91.7578C159.866 91.44 160.733 91.199 161.633 91.04C162.269 90.91 162.967 90.8136 163.724 90.7462C164.48 90.6787 165.111 90.621 165.616 90.5679V90.2886C165.616 89.2289 165.347 88.4777 164.798 88.0249C164.253 87.5769 163.502 87.3505 162.548 87.3505C161.99 87.3505 161.455 87.418 160.949 87.5529C160.444 87.6829 159.996 87.8469 159.596 88.0442C159.196 88.2465 158.844 88.4439 158.536 88.6415C158.233 88.839 157.987 89.0172 157.799 89.1761L156.171 85.7274C156.383 85.5397 156.706 85.3181 157.144 85.0531C157.583 84.7882 158.108 84.5281 158.734 84.2777C159.355 84.0271 160.053 83.8153 160.834 83.6419C161.614 83.4686 162.457 83.382 163.353 83.382C164.412 83.382 165.381 83.5217 166.252 83.801C167.124 84.0802 167.88 84.5137 168.516 85.111C169.147 85.7035 169.643 86.4548 170.004 87.3699C170.361 88.2802 170.539 89.3831 170.539 90.6788V102.97H166.05ZM185.74 80.8822C185.581 80.8052 185.273 80.6895 184.81 80.5448C184.343 80.4005 183.731 80.3281 182.961 80.3281C182.277 80.3281 181.699 80.5355 181.236 80.9447C180.774 81.3541 180.543 82.0235 180.543 82.9484V83.8587H184.671V87.8274H180.581V102.985H175.659V87.8274H173.121V83.8587H175.659V82.8279C175.659 81.5852 175.818 80.5353 176.136 79.6731C176.453 78.8158 176.897 78.1125 177.465 77.573C178.033 77.0289 178.703 76.6291 179.469 76.3787C180.239 76.128 181.073 76.0029 181.973 76.0029C183.163 76.0029 184.146 76.1138 184.926 76.3403C185.706 76.5668 186.164 76.7159 186.294 76.7978L185.74 80.8822ZM199.154 93.3231C199.154 92.5283 199.057 91.7721 198.874 91.0545C198.691 90.3369 198.412 89.7203 198.041 89.205C197.67 88.6848 197.222 88.2754 196.692 87.9719C196.163 87.6638 195.541 87.5096 194.828 87.5096C194.116 87.5096 193.489 87.6638 192.964 87.9719C192.435 88.2754 191.982 88.6848 191.611 89.205C191.245 89.7203 190.966 90.3369 190.778 91.0545C190.595 91.7722 190.503 92.5283 190.503 93.3232C190.503 94.1467 190.595 94.9126 190.778 95.6158C190.966 96.319 191.235 96.9354 191.592 97.4652C191.948 97.9951 192.401 98.4141 192.94 98.7224C193.485 99.0257 194.116 99.1799 194.828 99.1799C195.541 99.1799 196.162 99.0257 196.692 98.7224C197.222 98.4141 197.67 97.9951 198.041 97.4652C198.412 96.9354 198.691 96.3188 198.874 95.6158C199.057 94.9126 199.154 94.1467 199.154 93.3231ZM203.994 93.3441C203.994 94.5915 203.801 95.8149 203.416 97.019C203.036 98.2231 202.467 99.2972 201.711 100.251C200.96 101.205 200.006 101.97 198.855 102.553C197.704 103.136 196.36 103.425 194.828 103.425C193.292 103.425 191.948 103.136 190.802 102.553C189.651 101.97 188.697 101.205 187.941 100.251C187.189 99.2972 186.621 98.2231 186.236 97.019C185.855 95.8314 185.661 94.5914 185.663 93.3441C185.663 92.1013 185.851 90.8877 186.236 89.6931C186.621 88.5036 187.189 87.4391 187.941 86.4999C188.697 85.5607 189.651 84.8093 190.802 84.2409C191.948 83.6726 193.292 83.3836 194.828 83.3836C196.36 83.3836 197.699 83.6728 198.836 84.2409C199.972 84.8093 200.926 85.5607 201.692 86.4999C202.463 87.4391 203.036 88.5036 203.416 89.6931C203.801 90.8877 203.994 92.1013 203.994 93.3441ZM219.267 102.985V92.0756C219.267 90.621 218.964 89.494 218.357 88.6992C217.745 87.9093 216.902 87.5097 215.814 87.5097C215.048 87.5097 214.34 87.707 213.695 88.1069C213.044 88.5018 212.481 88.9401 212.004 89.4169V102.985H207.086V83.8587H211.571L211.806 85.3663C212.581 84.73 213.462 84.2344 214.407 83.902C215.371 83.5553 216.344 83.3867 217.321 83.3867C218.328 83.3867 219.253 83.5359 220.1 83.8394C220.948 84.1477 221.676 84.6295 222.282 85.2891C222.894 85.9491 223.361 86.8112 223.694 87.866C224.021 88.9256 224.19 90.1972 224.19 91.6758V102.985H219.267ZM239.496 91.1219C239.443 90.4621 239.304 89.8842 239.077 89.3976C238.851 88.9063 238.572 88.5114 238.239 88.2081C237.907 87.8997 237.551 87.6782 237.165 87.5288C236.775 87.3845 236.385 87.3121 235.985 87.3121C235.133 87.3121 234.323 87.6299 233.553 88.2658C232.782 88.9016 232.33 89.8505 232.195 91.122L239.496 91.1219ZM232.079 94.6525C232.185 96.2659 232.686 97.4315 233.591 98.1443C234.492 98.8572 235.663 99.2185 237.093 99.2185C237.758 99.2185 238.384 99.1558 238.967 99.0402C239.549 98.92 240.07 98.7704 240.522 98.5826C240.975 98.3995 241.36 98.2118 241.678 98.0287C241.996 97.841 242.232 97.6675 242.396 97.5086L243.706 101.521C243.518 101.651 243.22 101.829 242.81 102.055C242.401 102.282 241.89 102.489 241.283 102.691C240.676 102.889 239.959 103.057 239.14 103.206C238.321 103.351 237.42 103.423 236.443 103.423C235.195 103.423 234.015 103.226 232.888 102.831C231.766 102.431 230.779 101.814 229.936 100.981C229.088 100.148 228.414 99.1125 227.913 97.8698C227.407 96.627 227.157 95.1436 227.157 93.4241C227.157 91.8107 227.388 90.3802 227.85 89.1375C228.313 87.8948 228.948 86.8497 229.753 86.002C230.562 85.159 231.501 84.5089 232.57 84.0561C233.645 83.6082 234.786 83.3818 236.005 83.3818C237.223 83.3818 238.345 83.5842 239.381 83.9791C240.412 84.3739 241.303 84.9905 242.059 85.8237C242.81 86.657 243.407 87.7359 243.841 89.0604C244.279 90.3802 244.496 91.9551 244.496 93.7805V94.6523L232.079 94.6525Z" fill="#EE3023"/>
</svg>
