<svg width="111" height="111" viewBox="0 0 111 111" fill="none" xmlns="http://www.w3.org/2000/svg">
<g clip-path="url(#clip0_281_1560)">
<path fill-rule="evenodd" clip-rule="evenodd" d="M0 0H110.21V110.21H0V0Z" fill="white"/>
<path fill-rule="evenodd" clip-rule="evenodd" d="M23.3844 45.9064C23.3844 32.2397 30.919 18.9235 45.9871 18.9235C61.2308 18.9235 68.9403 31.8892 68.9403 45.9064C68.9403 59.7487 62.1073 72.8894 45.9871 72.8894C30.2181 72.8888 23.3844 59.3982 23.3844 45.9064ZM9.36719 45.9064C9.36719 69.2096 22.6834 85.5047 45.9871 85.5047C69.4664 85.5047 82.9576 69.2096 82.9576 45.9064C82.9576 23.3037 69.2914 6.48315 45.9871 6.48315C22.859 6.48315 9.36719 23.3037 9.36719 45.9064ZM79.6282 103.727V98.2955C82.431 95.6665 93.2944 86.5555 93.2944 80.7739C93.2944 77.7945 90.6666 76.3931 88.2132 76.3931C85.4104 76.3931 82.7814 77.6196 80.6785 79.0221L80.1536 73.5904C83.1319 72.1879 86.4607 71.3125 89.7901 71.3125C95.7478 71.3125 99.6014 74.4663 99.6014 80.7745C99.6014 87.4326 92.7683 93.7397 87.6871 98.6465H100.828V103.728H79.6282V103.727Z" fill="#294993"/>
</g>
<defs>
<clipPath id="clip0_281_1560">
<rect width="110.21" height="110.21" fill="white"/>
</clipPath>
</defs>
</svg>
