<svg width="193" height="66" viewBox="0 0 193 66" fill="none" xmlns="http://www.w3.org/2000/svg">
<path d="M9.74237 7.55657C12.6025 6.44169 16.1399 8.27505 16.8424 11.2233C17.8209 14.3697 15.1364 17.863 11.8498 17.9374C8.93953 18.1356 6.20489 15.658 6.1798 12.7594C6.10453 10.4553 7.53458 8.34937 9.74237 7.55657ZM23.1396 7.58134C25.9495 6.44169 29.4368 8.15117 30.2397 11.0251C31.193 13.8247 29.2863 17.1198 26.376 17.7887C23.5912 18.5815 20.4802 16.6738 19.8279 13.9238C19.0753 11.3967 20.6308 8.47325 23.1396 7.58134ZM36.9132 7.50702C40.1496 6.34259 44.0634 9.0183 43.9631 12.4373C44.2641 15.7324 40.7517 18.6063 37.5153 17.8383C35.2323 17.3428 33.5012 15.4846 33.2001 13.1805C32.9241 10.6535 34.4796 8.29982 36.9132 7.50702ZM65.6395 7.95297C70.4314 7.97775 75.1982 7.9282 79.9901 7.95297C83.628 8.0273 87.0149 9.76156 89.1725 12.6603C92.0828 16.5747 92.1079 22.3226 89.2227 26.237C87.1655 29.1605 83.5778 30.9196 79.9901 30.9691C77.2555 30.9939 74.5209 30.9939 71.7862 30.9691C71.7109 35.3543 71.7862 39.7395 71.7611 44.1247C69.7289 44.1247 67.6717 44.1247 65.6395 44.1247C65.6395 32.0592 65.6395 19.9937 65.6395 7.95297ZM71.7611 13.7751C71.8113 17.5657 71.7611 21.3811 71.7611 25.1717C74.571 25.1222 77.3809 25.2213 80.1908 25.1222C83.2516 24.924 85.5096 21.8023 85.1333 18.8788C84.9075 16.2774 82.6746 13.899 79.9901 13.7751C77.2555 13.7256 74.4958 13.7751 71.7611 13.7751ZM99.6595 22.0005C101.541 18.9779 105.48 17.5905 108.892 18.6558C108.867 20.3653 108.867 22.0996 108.892 23.8091C107.337 23.6109 105.731 23.4127 104.201 23.8091C101.491 24.6514 99.6344 27.1537 99.6595 29.9781C99.6344 34.6854 99.6595 39.3927 99.6595 44.0999C97.6775 44.1247 95.6955 44.1247 93.7135 44.0999C93.7135 36.271 93.7135 28.4668 93.7135 20.6379C93.7386 19.9937 93.7888 19.3743 93.9143 18.7549C95.7206 18.8293 97.527 18.7302 99.3334 18.8045C100.036 19.6716 99.5341 20.9599 99.6595 22.0005ZM119.881 18.4576C123.694 17.9126 127.784 18.9284 130.719 21.4554C134.834 24.8992 136.239 30.9196 134.507 35.8994C133.228 39.6652 130.242 42.6382 126.429 43.9017C124.322 44.645 122.038 44.645 119.856 44.4468C116.193 43.9265 112.931 41.895 110.899 38.8724C107.562 33.9173 108.064 26.7573 112.229 22.4217C114.186 20.2662 116.971 18.9036 119.881 18.4576ZM121.16 23.8834C119.605 24.0321 118.15 24.6762 116.971 25.7168C113.809 28.4916 113.609 33.8678 116.569 36.8656C118.877 39.3679 122.992 39.8386 125.877 38.0548C129.716 35.825 130.594 30.2011 127.909 26.7821C126.329 24.701 123.77 23.6109 121.16 23.8834ZM163.259 23.041C167.273 18.0117 175.301 16.7729 180.645 20.4397C184.71 23.0906 186.516 28.1695 185.914 32.8272C179.315 32.852 172.717 32.8272 166.119 32.852C166.52 35.4286 168.026 38.03 170.66 38.8972C173.921 40.0864 178.613 39.3927 179.943 35.8003H185.738C185.211 38.4264 183.681 40.8792 181.423 42.3905C178.412 44.5211 174.498 44.9175 170.911 44.3725C167.624 43.7283 164.714 41.8454 162.782 39.1449C159.37 34.4624 159.521 27.5254 163.259 23.041ZM171.739 23.2145C169.029 23.6604 167.097 25.9397 166.345 28.4173C170.81 28.4173 175.251 28.4173 179.692 28.4173C179.341 24.7258 175.251 22.3226 171.739 23.2145ZM134.658 18.8045C136.69 18.7797 138.747 18.8293 140.78 18.7549C143.313 24.5523 145.396 30.5231 147.829 36.3701C150.062 30.4984 152.345 24.6514 154.654 18.8045C156.786 18.8045 158.919 18.8045 161.051 18.8045C157.488 27.2528 153.876 35.6516 150.363 44.0999C148.682 44.1495 146.976 44.1247 145.295 44.0999C142.46 37.3115 139.525 30.5479 136.665 23.7843C135.963 22.1244 135.135 20.514 134.658 18.8045ZM10.7459 20.6131C13.8067 20.068 16.9177 22.5951 17.018 25.6672C17.1936 28.3925 14.9106 30.9939 12.1509 31.2169C9.26568 31.5885 6.38051 29.2596 6.20489 26.3857C5.87874 23.6604 8.01126 20.9847 10.7459 20.6131ZM23.1647 20.9104C25.9244 19.7459 29.3867 21.4554 30.2146 24.2798C31.1428 26.906 29.5623 30.0524 26.9029 30.9443C24.1181 32.0097 20.6809 30.3249 19.9032 27.4758C18.9749 24.8992 20.5806 21.8023 23.1647 20.9104ZM36.6372 20.9352C39.8736 19.4734 43.9882 22.1739 43.9631 25.6672C44.2641 28.6155 41.5797 31.2912 38.6443 31.2664C36.0853 31.2912 33.8775 29.5321 33.3255 27.0794C32.6732 24.5771 34.2036 21.8271 36.6372 20.9352ZM10.1187 34.1156C12.9035 33.2732 16.1148 35.0818 16.8173 37.8566C17.8459 40.9783 15.1113 44.6202 11.7996 44.5459C8.96462 44.8184 6.33033 42.3657 6.20489 39.6156C6.02927 37.0886 7.66002 34.7845 10.1187 34.1156ZM23.541 34.1156C26.4764 33.1741 29.8884 35.2057 30.3902 38.2282C31.1178 41.3003 28.4584 44.6698 25.222 44.5707C21.9354 44.8432 19.0251 41.4738 19.7276 38.3026C20.129 36.3205 21.6092 34.7102 23.541 34.1156ZM37.6408 33.9917C40.6765 33.3723 43.9631 35.825 43.9631 38.9219C44.3143 41.8702 41.6298 44.7193 38.6192 44.5707C35.8595 44.7441 33.3506 42.3657 33.2001 39.6652C32.9241 37.0142 34.9814 34.4129 37.6408 33.9917ZM10.1438 47.4198C12.9537 46.627 16.0898 48.4108 16.8173 51.2104C17.7205 54.1091 15.5378 57.4042 12.5523 57.8502C9.74236 58.42 6.73175 56.3884 6.28015 53.6136C5.70312 50.9379 7.53458 48.1135 10.1438 47.4198Z" fill="black"/>
</svg>
