<svg width="213" height="53" viewBox="0 0 213 53" fill="none" xmlns="http://www.w3.org/2000/svg">
<path d="M52.4273 26.2161C52.4273 40.6945 40.6943 52.4323 26.2161 52.4323C11.7377 52.4323 0 40.6945 0 26.2161C0 11.7378 11.7377 0 26.2161 0C40.6944 0 52.4273 11.7378 52.4273 26.2161Z" fill="#EE3023"/>
<path d="M26.4242 40.8341C19.2236 40.8586 11.7289 34.7123 11.6954 24.8386C11.6713 18.3121 15.1969 12.0268 19.6955 8.29874C24.088 4.66712 30.1039 2.33117 35.5561 2.31177C36.2593 2.31177 36.9962 2.3696 37.4441 2.52368C32.6759 3.51107 28.8805 7.9519 28.895 12.9851C28.895 13.1536 28.9093 13.3318 28.9284 13.4137C36.9093 15.3596 40.5313 20.1761 40.5554 26.8372C40.5747 33.5033 35.3155 40.8053 26.4242 40.8341Z" fill="white"/>
<path d="M69.3584 37.0726L61.3438 17.9463H66.5795L71.5789 30.6474L76.4243 17.9463H81.4238L73.6453 37.0727L69.3584 37.0726ZM95.3723 27.4107C95.3723 26.616 95.2808 25.8598 95.0929 25.1421C94.9098 24.4246 94.6305 23.808 94.2597 23.2926C93.8888 22.7724 93.4408 22.3631 92.911 22.0596C92.3812 21.7514 91.7599 21.5972 91.0471 21.5972C90.3342 21.5972 89.708 21.7514 89.183 22.0596C88.6533 22.3631 88.2004 22.7724 87.8344 23.2926C87.4635 23.808 87.1843 24.4246 87.0013 25.1421C86.8133 25.8599 86.7218 26.616 86.7218 27.4108C86.7218 28.2344 86.8133 29.0002 87.0011 29.7034C87.1843 30.4066 87.4539 31.0231 87.8103 31.5529C88.1667 32.0827 88.6194 32.5017 89.1637 32.81C89.7032 33.1134 90.3342 33.2676 91.0469 33.2676C91.7599 33.2676 92.3812 33.1134 92.911 32.81C93.4408 32.5017 93.8888 32.0827 94.2596 31.5529C94.6305 31.0231 94.9099 30.4065 95.0928 29.7034C95.2807 29.0002 95.3723 28.2344 95.3723 27.4107ZM100.213 27.4318C100.213 28.6791 100.02 29.9025 99.6396 31.1066C99.2543 32.3107 98.6859 33.3849 97.9297 34.3385C97.1784 35.2922 96.2247 36.058 95.0736 36.6407C93.9225 37.2236 92.5786 37.5126 91.0471 37.5126C89.5106 37.5126 88.1668 37.2235 87.0204 36.6407C85.8693 36.058 84.9156 35.2922 84.1594 34.3385C83.4081 33.3849 82.8398 32.3107 82.4544 31.1066C82.074 29.9025 81.8812 28.6791 81.8812 27.4318C81.8812 26.189 82.074 24.9753 82.4544 23.7807C82.8398 22.5912 83.4081 21.5267 84.1594 20.5875C84.9156 19.6483 85.8693 18.8969 87.0204 18.3285C88.1668 17.7603 89.5106 17.4713 91.0471 17.4713C92.5786 17.4713 93.9177 17.7604 95.0544 18.3285C96.191 18.8969 97.1446 19.6483 97.9105 20.5875C98.6811 21.5267 99.2543 22.5912 99.6396 23.7807C100.02 24.9753 100.213 26.189 100.213 27.4318ZM114.995 22.156C114.046 21.785 113.164 21.5972 112.345 21.5972C111.507 21.5972 110.78 21.7612 110.178 22.0789C109.571 22.3965 109.07 22.8254 108.675 23.3697C108.28 23.914 107.987 24.5256 107.789 25.2047C107.59 25.8837 107.49 26.5876 107.491 27.295C107.491 28.0898 107.577 28.8508 107.75 29.5829C107.919 30.3102 108.184 30.9509 108.541 31.4951C108.892 32.0394 109.34 32.4776 109.879 32.81C110.419 33.1375 111.06 33.3061 111.796 33.3061C112.403 33.3061 113.02 33.1376 113.651 32.81C114.282 32.4776 114.73 32.0827 114.995 31.6348V22.156ZM115.39 37.0726L115.192 35.6083C114.744 36.1093 114.152 36.5524 113.41 36.9329C112.673 37.3182 111.801 37.5108 110.799 37.5108C109.485 37.5108 108.319 37.2316 107.322 36.6777C106.315 36.1237 105.472 35.382 104.788 34.4572C104.105 33.5325 103.58 32.4584 103.223 31.2399C102.872 30.026 102.693 28.7546 102.693 27.43C102.692 26.1924 102.878 24.9617 103.242 23.7791C103.613 22.5894 104.172 21.5251 104.923 20.5859C105.679 19.6465 106.619 18.8951 107.755 18.3269C108.887 17.7585 110.221 17.4696 111.748 17.4696C112.75 17.4696 113.834 17.6573 114.995 18.0234V10.606H119.912V37.0726H115.39ZM133.764 28.1043C133.235 28.1322 132.686 28.1816 132.127 28.2441C131.592 28.3078 131.06 28.3946 130.533 28.5041C129.463 28.7159 128.726 29.0773 128.312 29.5927C127.903 30.1129 127.696 30.6715 127.696 31.2832C127.696 31.9142 127.927 32.4248 128.394 32.81C128.861 33.1905 129.516 33.3832 130.369 33.3832C131.009 33.3842 131.643 33.2496 132.228 32.9883C132.825 32.7233 133.341 32.391 133.764 31.9961V28.1043ZM134.159 37.0581L133.967 35.6276C133.432 36.2153 132.758 36.6777 131.934 37.0099C131.11 37.3424 130.21 37.5108 129.227 37.5108C128.404 37.5108 127.609 37.3711 126.858 37.0918C126.097 36.8175 125.427 36.4175 124.844 35.9022C124.262 35.3868 123.789 34.7558 123.433 33.9997C123.072 33.2435 122.894 32.391 122.894 31.4374C122.894 30.4885 123.077 29.6455 123.452 28.9183C123.823 28.191 124.324 27.5792 124.965 27.0736C125.6 26.5727 126.333 26.1632 127.156 25.8454C127.975 25.5276 128.842 25.2867 129.743 25.1276C130.378 24.9977 131.077 24.9013 131.833 24.8338C132.589 24.7663 133.22 24.7086 133.726 24.6555V24.3763C133.726 23.3166 133.456 22.5653 132.907 22.1126C132.363 21.6646 131.611 21.4382 130.658 21.4382C130.099 21.4382 129.564 21.5057 129.059 21.6406C128.553 21.7706 128.105 21.9345 127.705 22.1319C127.305 22.3341 126.954 22.5316 126.646 22.7292C126.342 22.9266 126.097 23.1048 125.909 23.2637L124.281 19.8151C124.493 19.6274 124.815 19.4057 125.254 19.1408C125.692 18.8759 126.217 18.6158 126.843 18.3653C127.465 18.1147 128.163 17.9029 128.943 17.7296C129.723 17.5562 130.566 17.4696 131.462 17.4696C132.522 17.4696 133.49 17.6094 134.362 17.8886C135.233 18.1679 135.99 18.6013 136.625 19.1986C137.256 19.7911 137.752 20.5425 138.114 21.4576C138.47 22.3679 138.648 23.4708 138.648 24.7665V37.0581H134.159ZM153.849 14.9698C153.69 14.8928 153.382 14.7772 152.92 14.6325C152.452 14.4882 151.841 14.4158 151.07 14.4158C150.386 14.4158 149.808 14.6231 149.346 15.0323C148.883 15.4417 148.652 16.1112 148.652 17.036V17.9463H152.78V21.915H148.691V37.0726H143.768V21.915H141.23V17.9463H143.768V16.9156C143.768 15.6729 143.927 14.623 144.245 13.7608C144.563 12.9035 145.006 12.2002 145.574 11.6607C146.143 11.1165 146.812 10.7168 147.578 10.4663C148.349 10.2156 149.182 10.0906 150.083 10.0906C151.272 10.0906 152.255 10.2014 153.035 10.4279C153.815 10.6544 154.273 10.8035 154.403 10.8855L153.849 14.9698ZM167.263 27.4107C167.263 26.616 167.167 25.8598 166.984 25.1421C166.801 24.4246 166.521 23.808 166.15 23.2926C165.78 22.7724 165.332 22.3631 164.802 22.0596C164.272 21.7514 163.651 21.5972 162.938 21.5972C162.225 21.5972 161.599 21.7514 161.074 22.0596C160.544 22.3631 160.091 22.7724 159.72 23.2926C159.354 23.808 159.075 24.4246 158.887 25.1421C158.704 25.8599 158.613 26.616 158.613 27.4108C158.613 28.2344 158.704 29.0002 158.887 29.7034C159.075 30.4066 159.345 31.0231 159.701 31.5529C160.057 32.0827 160.51 32.5017 161.05 32.81C161.594 33.1134 162.225 33.2676 162.938 33.2676C163.651 33.2676 164.272 33.1134 164.802 32.81C165.332 32.5017 165.78 32.0827 166.15 31.5529C166.521 31.0231 166.801 30.4065 166.984 29.7034C167.167 29.0002 167.263 28.2344 167.263 27.4107ZM172.104 27.4318C172.104 28.6791 171.911 29.9025 171.526 31.1066C171.145 32.3107 170.577 33.3849 169.821 34.3385C169.069 35.2922 168.115 36.058 166.964 36.6407C165.813 37.2236 164.469 37.5126 162.938 37.5126C161.401 37.5126 160.057 37.2235 158.911 36.6407C157.76 36.058 156.806 35.2922 156.05 34.3385C155.299 33.3849 154.731 32.3107 154.345 31.1066C153.964 29.919 153.77 28.6791 153.772 27.4318C153.772 26.189 153.96 24.9753 154.345 23.7807C154.731 22.5912 155.299 21.5267 156.05 20.5875C156.806 19.6483 157.76 18.8969 158.911 18.3285C160.058 17.7603 161.401 17.4713 162.938 17.4713C164.469 17.4713 165.808 17.7604 166.945 18.3285C168.082 18.8969 169.035 19.6483 169.801 20.5875C170.572 21.5267 171.145 22.5912 171.526 23.7807C171.911 24.9753 172.104 26.189 172.104 27.4318ZM187.377 37.0726V26.1632C187.377 24.7086 187.073 23.5816 186.466 22.7869C185.855 21.9969 185.012 21.5973 183.923 21.5973C183.157 21.5973 182.449 21.7947 181.804 22.1945C181.154 22.5894 180.59 23.0277 180.113 23.5045V37.0726H175.196V17.9463H179.68L179.916 19.4539C180.691 18.8176 181.571 18.3221 182.517 17.9897C183.48 17.643 184.453 17.4743 185.431 17.4743C186.437 17.4743 187.362 17.6236 188.21 17.927C189.058 18.2353 189.785 18.7171 190.392 19.3768C191.003 20.0367 191.471 20.8988 191.803 21.9537C192.13 23.0132 192.299 24.2848 192.299 25.7635V37.0726H187.377ZM207.606 25.2096C207.553 24.5497 207.413 23.9718 207.187 23.4852C206.96 22.994 206.681 22.5991 206.349 22.2957C206.016 21.9873 205.66 21.7659 205.275 21.6165C204.884 21.4722 204.494 21.3998 204.095 21.3998C203.242 21.3998 202.433 21.7176 201.662 22.3534C200.892 22.9893 200.439 23.9381 200.304 25.2097L207.606 25.2096ZM200.188 28.7401C200.294 30.3536 200.795 31.5192 201.701 32.232C202.602 32.9448 203.772 33.3061 205.202 33.3061C205.867 33.3061 206.493 33.2435 207.076 33.1278C207.659 33.0076 208.179 32.8581 208.632 32.6703C209.084 32.4871 209.47 32.2995 209.788 32.1163C210.106 31.9286 210.342 31.7552 210.505 31.5963L211.815 35.6083C211.628 35.7383 211.329 35.9165 210.92 36.143C210.51 36.3695 210 36.5765 209.393 36.7787C208.786 36.9762 208.068 37.1448 207.249 37.2941C206.431 37.4384 205.53 37.5108 204.552 37.5108C203.305 37.5108 202.125 37.3134 200.998 36.9183C199.875 36.5186 198.888 35.902 198.045 35.0689C197.197 34.2357 196.523 33.2001 196.022 31.9574C195.516 30.7146 195.266 29.2313 195.266 27.5118C195.266 25.8983 195.497 24.4678 195.96 23.2252C196.422 21.9825 197.058 20.9374 197.862 20.0896C198.671 19.2467 199.61 18.5965 200.68 18.1438C201.754 17.6959 202.895 17.4695 204.114 17.4695C205.332 17.4695 206.455 17.6719 207.49 18.0668C208.521 18.4616 209.412 19.0781 210.168 19.9113C210.92 20.7446 211.517 21.8236 211.95 23.148C212.389 24.4678 212.605 26.0427 212.605 27.8681V28.74L200.188 28.7401Z" fill="#EE3023"/>
</svg>
