<svg width="222" height="140" viewBox="0 0 222 140" fill="none" xmlns="http://www.w3.org/2000/svg">
<path d="M24.2892 44.7194C27.1493 43.6045 30.6868 45.4379 31.3893 48.3861C32.3677 51.5326 29.6833 55.0259 26.3967 55.1002C23.4864 55.2984 20.7518 52.8209 20.7267 49.9222C20.6514 47.6181 22.0815 45.5122 24.2892 44.7194ZM37.6865 44.7442C40.4964 43.6045 43.9837 45.314 44.7865 48.1879C45.7399 50.9875 43.8332 54.2826 40.9229 54.9516C38.1381 55.7444 35.0271 53.8367 34.3748 51.0866C33.6222 48.5596 35.1776 45.6361 37.6865 44.7442ZM51.4601 44.6699C54.6965 43.5054 58.6103 46.1811 58.5099 49.6001C58.811 52.8952 55.2986 55.7691 52.0622 55.0011C49.7791 54.5056 48.048 52.6475 47.747 50.3434C47.471 47.8163 49.0265 45.4627 51.4601 44.6699ZM80.1864 45.1158C84.9783 45.1406 89.7451 45.091 94.537 45.1158C98.1748 45.1901 101.562 46.9244 103.719 49.8231C106.63 53.7376 106.655 59.4854 103.77 63.3999C101.712 66.3234 98.1247 68.0824 94.537 68.1319C91.8024 68.1567 89.0677 68.1567 86.3331 68.1319C86.2578 72.5171 86.3331 76.9024 86.308 81.2876C84.2758 81.2876 82.2186 81.2876 80.1864 81.2876C80.1864 69.2221 80.1864 57.1565 80.1864 45.1158ZM86.308 50.938C86.3582 54.7286 86.308 58.544 86.308 62.3346C89.1179 62.285 91.9278 62.3841 94.7377 62.285C97.7985 62.0868 100.056 58.9651 99.6802 56.0417C99.4544 53.4403 97.2215 51.0619 94.537 50.938C91.8024 50.8884 89.0426 50.938 86.308 50.938ZM114.206 59.1633C116.088 56.1408 120.027 54.7534 123.439 55.8187C123.414 57.5282 123.414 59.2624 123.439 60.9719C121.883 60.7737 120.278 60.5755 118.747 60.9719C116.038 61.8143 114.181 64.3166 114.206 67.1409C114.181 71.8482 114.206 76.5555 114.206 81.2628C112.224 81.2876 110.242 81.2876 108.26 81.2628C108.26 73.4338 108.26 65.6297 108.26 57.8007C108.286 57.1565 108.336 56.5372 108.461 55.9178C110.267 55.9921 112.074 55.893 113.88 55.9673C114.583 56.8345 114.081 58.1228 114.206 59.1633ZM134.428 55.6205C138.241 55.0754 142.331 56.0912 145.266 58.6183C149.38 62.062 150.785 68.0824 149.054 73.0622C147.775 76.828 144.789 79.8011 140.976 81.0646C138.868 81.8078 136.585 81.8078 134.403 81.6096C130.74 81.0894 127.478 79.0578 125.446 76.0352C122.109 71.0802 122.611 63.9202 126.776 59.5845C128.733 57.4291 131.517 56.0664 134.428 55.6205ZM135.707 61.0462C134.152 61.1949 132.697 61.8391 131.517 62.8796C128.356 65.6544 128.156 71.0306 131.116 74.0284C133.424 76.5307 137.539 77.0015 140.424 75.2176C144.262 72.9879 145.141 67.3639 142.456 63.9449C140.875 61.8638 138.316 60.7737 135.707 61.0462ZM177.806 60.2039C181.82 55.1745 189.848 53.9358 195.192 57.6025C199.256 60.2534 201.063 65.3323 200.461 69.9901C193.862 70.0149 187.264 69.9901 180.666 70.0149C181.067 72.5915 182.573 75.1929 185.207 76.06C188.468 77.2492 193.16 76.5555 194.49 72.9631H200.285C199.758 75.5893 198.228 78.042 195.97 79.5533C192.959 81.684 189.045 82.0804 185.458 81.5353C182.171 80.8912 179.261 79.0082 177.329 76.3078C173.917 71.6252 174.068 64.6882 177.806 60.2039ZM186.286 60.3773C183.576 60.8233 181.644 63.1026 180.892 65.5801C185.357 65.5801 189.798 65.5801 194.239 65.5801C193.887 61.8886 189.798 59.4854 186.286 60.3773ZM149.205 55.9673C151.237 55.9426 153.294 55.9921 155.326 55.9178C157.86 61.7152 159.943 67.686 162.376 73.5329C164.609 67.6612 166.892 61.8143 169.2 55.9673C171.333 55.9673 173.465 55.9673 175.598 55.9673C172.035 64.4157 168.423 72.8145 164.91 81.2628C163.229 81.3123 161.523 81.2876 159.842 81.2628C157.007 74.4744 154.072 67.7108 151.212 60.9471C150.509 59.2872 149.682 57.6768 149.205 55.9673ZM25.2928 57.7759C28.3536 57.2309 31.4645 59.7579 31.5649 62.8301C31.7405 65.5553 29.4575 68.1567 26.6977 68.3797C23.8126 68.7513 20.9274 66.4225 20.7518 63.5485C20.4256 60.8233 22.5581 58.1475 25.2928 57.7759ZM37.7116 58.0732C40.4713 56.9088 43.9335 58.6183 44.7614 61.4426C45.6897 64.0688 44.1091 67.2153 41.4498 68.1072C38.6649 69.1725 35.2278 67.4878 34.4501 64.6386C33.5218 62.062 35.1275 58.9651 37.7116 58.0732ZM51.1841 58.098C54.4205 56.6363 58.535 59.3368 58.5099 62.8301C58.811 65.7783 56.1265 68.454 53.1912 68.4292C50.6322 68.454 48.4244 66.695 47.8724 64.2422C47.2201 61.7399 48.7505 58.9899 51.1841 58.098ZM24.6656 71.2784C27.4504 70.436 30.6617 72.2446 31.3642 75.0194C32.3928 78.1411 29.6582 81.7831 26.3465 81.7087C23.5115 81.9813 20.8772 79.5285 20.7518 76.7785C20.5761 74.2514 22.2069 71.9473 24.6656 71.2784ZM38.0879 71.2784C41.0233 70.3369 44.4353 72.3685 44.9371 75.3911C45.6646 78.4632 43.0053 81.8326 39.7688 81.7335C36.4822 82.006 33.572 78.6366 34.2745 75.4654C34.6759 73.4834 36.1561 71.873 38.0879 71.2784ZM52.1876 71.1545C55.2234 70.5351 58.5099 72.9879 58.5099 76.0848C58.8612 79.033 56.1767 81.8822 53.1661 81.7335C50.4064 81.9069 47.8975 79.5285 47.747 76.828C47.471 74.1771 49.5283 71.5757 52.1876 71.1545ZM24.6907 84.5827C27.5006 83.7898 30.6366 85.5737 31.3642 88.3733C32.2674 91.272 30.0847 94.5671 27.0992 95.013C24.2892 95.5828 21.2786 93.5513 20.827 90.7764C20.25 88.1007 22.0815 85.2764 24.6907 84.5827Z" fill="black"/>
</svg>
