<svg width="68" height="99" viewBox="0 0 68 99" fill="none" xmlns="http://www.w3.org/2000/svg">
<path d="M55.9679 36.0861C55.2684 35.5738 54.4386 34.9543 54.0592 34.585C54.2607 34.2395 54.6164 33.7034 54.9365 33.2507C56.7859 30.5463 60.2713 25.4473 60.2713 18.1443C60.2713 13.9507 58.7538 9.41169 55.0787 5.92102C51.4036 2.43036 45.6065 0 37.0946 0C29.0212 0 19.9403 2.66863 12.0803 7.32682C8.57123 9.43551 5.66673 11.6872 3.63951 13.8673C1.61229 16.0356 0.438638 18.1205 0.438638 19.9075C0.438638 20.7772 0.770581 21.5754 1.3989 22.1949C2.54884 23.3267 4.57606 23.8509 7.17233 24.1368C9.76859 24.4108 12.9339 24.4227 16.3482 24.4227H16.9528C22.2046 24.4227 25.9152 24.5657 28.2862 24.9112C29.4717 25.0899 30.3253 25.3162 30.8469 25.5783C31.3804 25.8524 31.5464 26.1264 31.5582 26.4242C31.5701 26.5433 31.4278 26.8293 31.0959 27.1509C29.9578 28.2946 26.9822 29.9863 24.3029 31.8568C22.9633 32.786 21.6948 33.7748 20.7464 34.7756C19.8098 35.7763 19.1697 36.8009 19.1578 37.8612V37.9088C19.1697 39.2551 19.881 40.3273 20.9598 41.1612C24.2199 43.675 30.9655 44.3302 34.4983 44.9736C36.6796 45.3667 37.8296 46.153 38.4579 46.9989C39.0862 47.8447 39.1929 48.7978 39.1929 49.6079C39.1929 52.6459 38.0667 55.3264 36.0513 57.173C34.2612 58.829 32.1036 59.9012 28.962 59.9012H28.5826C28.6537 59.2936 28.6893 58.6979 28.6893 58.1261C28.6893 54.552 27.2904 51.5617 24.9075 49.4888C22.5365 47.4158 19.1934 46.2483 15.3168 46.2483C10.5392 46.2483 6.69812 48.2379 4.06629 51.2043C1.43447 54.1708 0.0118551 58.0784 0 61.9384C0 68.0143 2.78595 74.1141 8.21557 78.6769C13.6452 83.2517 21.7185 86.2897 32.2933 86.2897C40.6748 86.2897 49.1275 83.5138 55.5292 78.6769C60.8284 74.6621 67.1591 67.3591 67.1591 55.3622C67.1591 44.366 59.8326 38.9334 55.9679 36.0861ZM22.6076 36.8605C23.7813 35.681 26.1997 34.025 28.0017 32.8694C29.7681 31.7257 31.3567 30.7012 32.5304 29.6885C33.6922 28.6639 34.4509 27.6275 34.4509 26.4242C34.4509 25.483 34.0834 24.6133 33.3958 23.9224C32.1628 22.7072 29.9815 22.1353 27.2548 21.8256C24.5282 21.5277 21.2562 21.5158 17.8656 21.5158H16.9291C14.1313 21.5158 11.9025 21.4801 10.1242 21.4086C12.5901 20.4436 15.459 18.9068 18.5769 17.2389C23.639 14.5226 29.2346 11.5085 34.5102 10.1622C33.2891 11.5561 32.5066 13.1287 32.4948 14.4868C32.4948 14.8204 32.6015 15.1778 32.8504 15.4518C33.1113 15.7259 33.5143 15.9165 34.0597 15.9165C34.9962 15.9165 36.0513 15.5472 37.2724 15.1659C38.9202 14.6179 40.8289 13.9984 42.9273 13.9984C44.7529 13.9984 46.7327 14.463 48.843 15.8807C47.444 15.976 46.2941 16.3811 45.5828 16.9529C44.8004 17.5605 44.6107 18.2396 44.6225 18.7162C44.6344 19.4905 45.1679 20.0862 45.8436 20.8606C46.9343 22.0877 48.345 23.696 48.3569 26.2932C48.3569 28.1874 47.6337 30.2008 46.5668 31.7376C46.5668 31.6304 46.5786 31.5113 46.5786 31.4041C46.5786 30.0817 46.2823 28.6044 45.5709 27.7585C45.1323 27.2701 44.5633 26.9841 43.9112 26.9841C42.8087 26.9961 41.8484 27.8419 40.4258 29.0214C39.4182 29.8553 38.1615 30.9275 36.5848 31.9283C29.9222 36.1456 26.3539 37.7778 23.8287 37.9803C22.8685 38.028 21.4696 38.0042 22.6076 36.8605ZM28.713 62.6532C32.4592 62.6532 35.589 61.5095 38.0074 59.2817C40.5918 56.9228 42.0618 53.3845 42.0618 49.5841C42.0618 47.7613 41.4928 46.2483 40.4614 45.0808C46.0452 46.427 51.8541 49.3101 55.0787 53.6466C53.6324 53.1701 52.6247 53.0509 51.5933 53.0509C50.5501 53.0629 49.7202 54.1589 49.7202 55.4098C49.7202 56.0651 49.9692 56.8037 50.2656 57.733C50.7279 59.1745 51.3325 61.033 51.3325 63.2489C51.3325 65.298 50.8228 67.645 49.2223 70.266C49.1749 68.1454 48.6059 66.4537 47.8827 65.5482C47.3136 64.8453 46.6972 64.6666 46.2823 64.6785C45.6184 64.6785 45.0967 65.0121 44.67 65.5125C44.2313 66.0248 43.8638 66.7038 43.437 67.4901C41.8959 70.266 39.4774 74.6859 31.9139 76.9733C32.6015 75.7819 32.9571 74.5668 32.9571 73.6018C32.9571 73.2205 32.8979 72.8631 32.7793 72.5653C32.5541 71.9815 32.0443 71.636 31.4753 71.636H31.4634C30.6335 71.6718 29.6733 71.9339 28.5589 72.2555C26.8162 72.744 24.706 73.3397 22.3824 73.3397C19.9758 73.3397 17.344 72.7083 14.641 70.6472C15.5776 70.5043 16.4074 70.1707 17.012 69.6584C17.51 69.2295 17.8182 68.6696 17.8182 68.0858C17.8063 67.1923 17.1069 66.5847 16.3126 65.858C15.1508 64.7619 13.7756 63.4753 13.7756 61.2951C13.7756 60.6637 13.8942 59.9608 14.1668 59.1626C14.4158 59.8536 14.7714 60.4731 15.2338 60.9973C15.9451 61.7597 16.7868 62.2363 17.6167 62.2363C18.4821 62.2482 19.0037 61.8312 19.2171 61.307C19.4423 60.7828 19.4305 60.1752 19.4305 59.7106C19.4305 59.1745 19.6794 58.6622 20.0707 58.281C20.4737 57.8997 21.0072 57.6615 21.5644 57.6615C22.8329 57.6615 23.805 58.3763 24.4808 59.4366C25.1446 60.4969 25.5003 61.9146 25.5003 63.237C25.5003 64.059 25.3699 64.8453 25.0972 65.5006L24.8127 66.2035L25.4173 65.7388C26.5554 64.8453 27.4445 63.5825 27.8594 62.6652C28.1084 62.6532 28.4166 62.6532 28.713 62.6532ZM3.94774 20.7653C3.55653 20.527 3.30757 20.2768 3.30757 19.9075C3.30757 18.871 4.29154 17.215 6.09351 15.4042C11.5231 9.93588 24.0895 2.89499 37.0946 2.9069C43.6741 2.9069 49.0326 4.53905 52.5892 7.60083C55.6715 10.2456 57.3668 13.9865 57.3668 18.1443C57.3668 24.5419 54.3674 28.9499 52.5417 31.6185C51.6052 32.9647 51.0599 33.7629 51.048 34.6684C51.048 35.3832 51.3918 35.9789 51.9371 36.5507C52.4943 37.1226 53.2768 37.7063 54.237 38.4211C58.0306 41.2446 64.2546 45.8433 64.2546 55.3503C64.2546 66.1558 58.576 72.7202 53.7865 76.3419C47.8945 80.8095 40.0465 83.3709 32.2814 83.3709C12.8983 83.3589 2.86893 72.5296 2.86893 61.9146C2.86893 58.7575 4.04258 55.5409 6.1765 53.1224C8.32227 50.704 11.4164 49.0718 15.3049 49.0718H15.3168C17.4862 49.0718 20.2366 49.5841 22.418 51.0495C24.5993 52.5148 26.2353 54.9095 26.2353 58.7933V59.1268C26.0456 58.686 25.773 58.2095 25.3936 57.7449C24.6112 56.7799 23.3545 55.9221 21.5051 55.9221C19.4186 55.9221 17.6522 57.6376 17.6522 59.6868C17.6522 60.068 17.6048 60.3063 17.5574 60.4254C17.5455 60.4731 17.5218 60.4969 17.51 60.5088C17.0002 60.4969 16.3956 60.1395 15.9214 59.4485C15.4353 58.7456 15.0797 57.6972 15.0797 56.3629C15.0797 56.1008 15.0915 55.8149 15.1271 55.529L15.1864 54.9094L14.7714 55.3741C12.8153 57.5662 12.104 59.5438 12.104 61.2594C12.104 64.059 13.9771 66.0486 15.0915 67.0851C15.2931 67.2757 15.542 67.502 15.7436 67.7046C15.8384 67.8118 15.9214 67.9071 15.9807 67.9786C16.0044 68.0143 16.0281 68.0501 16.0399 68.0739C16.0399 68.0858 16.0518 68.0858 16.0518 68.0977C16.0399 68.2049 15.8265 68.467 15.3168 68.6696C14.7596 68.9078 13.8704 69.0865 12.5901 69.0865C12.1515 69.0865 11.6535 69.0627 11.1201 69.0151L10.634 68.9674L10.9422 69.3486C14.6529 73.7924 18.7547 75.0076 22.3113 75.0076C24.9312 75.0076 27.2667 74.3523 28.9501 73.8758C29.6614 73.6732 30.4557 73.3754 30.8944 73.3754C31.084 73.3754 31.1552 73.4231 31.1907 73.4707C31.2263 73.5184 31.2737 73.6375 31.2619 73.8043C31.2619 74.3166 30.9655 75.2578 30.4557 76.2227C29.9459 77.1877 29.2346 78.2004 28.4522 78.9152L27.978 79.3441L28.6182 79.2607C39.4656 77.8549 43.0814 71.5407 44.8715 68.2883C45.1679 67.7403 45.4524 67.24 45.7014 66.8825C45.9503 66.5132 46.1874 66.3345 46.2467 66.3583C46.3415 66.3583 46.5194 66.4537 46.6972 66.7158C47.2307 67.514 47.6812 69.5035 47.6812 71.5765C47.6812 72.47 47.5982 73.3992 47.4085 74.2451L47.2781 74.8765L47.7523 74.4357C51.8423 70.6234 52.9685 66.6204 52.9685 63.2847C52.9685 60.7352 52.3165 58.5669 51.8541 57.173C51.6052 56.3986 51.3918 55.7077 51.3918 55.3741C51.3918 55.1001 51.4392 54.9571 51.4985 54.8856C51.5459 54.8141 51.6408 54.7665 51.8186 54.7188C53.5494 54.7188 55.6003 55.3383 58.0662 56.5178L58.5523 56.7441L58.3389 56.2557C54.9957 48.3927 47.5507 45.0212 40.3073 43.1865C36.6796 42.2692 33.0875 41.7212 30.0645 41.197C27.8713 40.8157 25.9626 40.4345 24.5756 39.9341C24.3503 39.8388 24.1132 39.7316 23.8999 39.6244C28.0373 39.1002 33.0401 36.1695 37.4858 33.2983C39.1573 32.2261 40.4496 31.13 41.4809 30.2604C42.0263 29.8076 42.5242 29.3907 42.951 29.0928C43.3659 28.7831 43.7334 28.6163 43.8875 28.6282C44.0416 28.6282 44.1602 28.6878 44.3025 28.8427C44.7055 29.2835 44.9545 30.4986 44.9426 31.8329C44.9426 32.9052 44.8004 34.0489 44.5396 34.9781L44.3973 35.4904L44.8478 35.2045C48.3687 32.929 50.064 29.4741 50.064 26.2455C50.064 23.005 48.2739 20.9797 47.124 19.6811C46.9461 19.4786 46.7446 19.2403 46.5786 19.0378C46.4482 18.871 46.3415 18.7042 46.306 18.6447C46.3297 18.5613 46.4245 18.3945 46.626 18.2515C47.3611 17.6916 48.6296 17.3461 50.0877 17.358C50.8346 17.358 51.6289 17.4414 52.435 17.632L52.9922 17.7631L52.6484 17.3104C49.6135 13.3908 46.1281 12.2709 43.0221 12.2709C40.58 12.2709 38.3631 12.9619 36.7508 13.4861C35.9683 13.7482 34.8777 14.0818 34.4035 14.0818C34.3442 14.0818 34.2968 14.0818 34.2731 14.0699C34.2849 13.498 34.688 12.533 35.4704 11.5204C36.2647 10.472 37.4384 9.35212 38.944 8.44669L39.4893 8.11311L38.8491 8.06546C38.5765 8.04163 38.2919 8.02972 37.9955 8.02972C31.7598 8.04163 23.7102 12.5926 17.7708 15.6663C14.0601 17.632 6.2832 22.1592 3.94774 20.7653ZM2.64368 91.2457V89.7208H9.40108V91.2457H6.93523V98.0007H5.1214V91.2457H2.64368ZM11.5943 89.7208V92.8421H11.6298C11.8432 92.4966 12.104 92.2345 12.4241 92.0797C12.7442 91.9248 13.0643 91.8414 13.3725 91.8414C13.8112 91.8414 14.1668 91.901 14.4513 92.0201C14.7359 92.1392 14.9493 92.306 15.1152 92.5205C15.2812 92.7349 15.3879 92.997 15.459 93.2948C15.5302 93.5927 15.5539 93.9382 15.5539 94.3075V98.0007H13.9179V94.6053C13.9179 94.1169 13.8467 93.7356 13.6926 93.4974C13.5385 93.2591 13.2658 93.128 12.8746 93.128C12.4241 93.128 12.104 93.2591 11.9025 93.5331C11.701 93.7952 11.6061 94.236 11.6061 94.8436V97.9888H9.95827V89.697H11.5943M17.8893 92.0082V93.1161H17.913C17.9842 92.9374 18.0909 92.7587 18.2213 92.6039C18.3517 92.449 18.5058 92.306 18.6718 92.1988C18.8377 92.0797 19.0274 91.9963 19.2171 91.9367C19.4068 91.8771 19.6083 91.8414 19.8217 91.8414C19.9284 91.8414 20.0469 91.8652 20.1774 91.901V93.4378C20.1062 93.4259 20.0114 93.414 19.9047 93.4021C19.798 93.3901 19.6913 93.3901 19.5965 93.3901C19.3001 93.3901 19.0393 93.4378 18.8377 93.545C18.6362 93.6522 18.4584 93.7833 18.3398 93.962C18.2094 94.1407 18.1264 94.3432 18.0671 94.5696C18.0079 94.8079 17.9842 95.058 17.9842 95.3201V98.0245H16.3482V92.0201H17.8893M22.3705 96.5591C22.6195 96.7974 22.9752 96.9165 23.4375 96.9165C23.7694 96.9165 24.054 96.8332 24.2911 96.6664C24.5282 96.4996 24.6823 96.3209 24.7297 96.1422H26.1642C25.9389 96.857 25.5833 97.3812 25.0972 97.679C24.623 97.9888 24.0421 98.1436 23.3664 98.1436C22.8922 98.1436 22.4772 98.0722 22.0979 97.9173C21.7185 97.7624 21.3984 97.548 21.1376 97.2739C20.8768 96.9999 20.6753 96.6664 20.533 96.2732C20.3907 95.8801 20.3196 95.4631 20.3196 94.9985C20.3196 94.5458 20.3907 94.1288 20.533 93.7476C20.6753 93.3544 20.8887 93.0208 21.1613 92.7468C21.434 92.4609 21.7541 92.2464 22.1216 92.0797C22.4891 91.9129 22.904 91.8295 23.3664 91.8295C23.8761 91.8295 24.3148 91.9248 24.6941 92.1273C25.0735 92.3298 25.3817 92.5919 25.6188 92.9255C25.8678 93.2591 26.0338 93.6403 26.1523 94.0692C26.259 94.4981 26.2946 94.9389 26.2709 95.4035H21.9675C21.9793 95.9396 22.1216 96.3328 22.3705 96.5591ZM24.2199 93.4021C24.0303 93.1876 23.722 93.0804 23.3308 93.0804C23.07 93.0804 22.8447 93.128 22.6788 93.2114C22.5128 93.3067 22.3705 93.414 22.2639 93.545C22.1572 93.6761 22.086 93.819 22.0505 93.962C22.003 94.105 21.9793 94.236 21.9793 94.3551H24.6467C24.5519 93.9382 24.4096 93.6284 24.2199 93.4021ZM28.7723 96.5591C29.0212 96.7974 29.3769 96.9165 29.8392 96.9165C30.1712 96.9165 30.4557 96.8332 30.6928 96.6664C30.9299 96.4996 31.0722 96.3209 31.1315 96.1422H32.5778C32.3525 96.857 31.9969 97.3812 31.5108 97.679C31.0366 97.9888 30.4557 98.1436 29.78 98.1436C29.3058 98.1436 28.8908 98.0722 28.5115 97.9173C28.1321 97.7624 27.812 97.548 27.5512 97.2739C27.2904 96.9999 27.0889 96.6664 26.9466 96.2732C26.8043 95.8801 26.7332 95.4631 26.7332 94.9985C26.7332 94.5458 26.8043 94.1288 26.9585 93.7476C27.1007 93.3544 27.3141 93.0208 27.5868 92.7468C27.8594 92.4609 28.1795 92.2464 28.547 92.0797C28.9146 91.9129 29.3295 91.8295 29.7918 91.8295C30.3016 91.8295 30.7402 91.9248 31.1196 92.1273C31.499 92.3298 31.8072 92.5919 32.0443 92.9255C32.2933 93.2591 32.4592 93.6403 32.5659 94.0692C32.6726 94.4981 32.7082 94.9389 32.6845 95.4035H28.3811C28.3929 95.9396 28.5233 96.3328 28.7723 96.5591ZM30.6335 93.4021C30.4439 93.1876 30.1356 93.0804 29.7444 93.0804C29.4836 93.0804 29.2702 93.128 29.0924 93.2114C28.9146 93.3067 28.7841 93.414 28.6775 93.545C28.5708 93.6761 28.4996 93.819 28.4522 93.962C28.4048 94.105 28.3811 94.236 28.3811 94.3551H31.0485C30.9655 93.9382 30.8232 93.6284 30.6335 93.4021ZM33.5025 96.2136H35.3163V98.0007H33.5025V96.2136ZM39.1336 93.0804C38.8728 93.0804 38.6476 93.14 38.4816 93.2591C38.3038 93.3782 38.1615 93.5331 38.043 93.7237C37.9363 93.9143 37.8533 94.1288 37.8059 94.3551C37.7584 94.5815 37.7347 94.8079 37.7347 95.0342C37.7347 95.2487 37.7584 95.475 37.8059 95.7014C37.8533 95.9277 37.9244 96.1303 38.0311 96.309C38.1378 96.4877 38.2801 96.6425 38.4579 96.7498C38.6357 96.8689 38.8491 96.9285 39.1099 96.9285C39.5011 96.9285 39.8094 96.8212 40.0228 96.5949C40.2362 96.3804 40.3666 96.0826 40.4258 95.7014H42.0026C41.8959 96.4996 41.5876 97.1072 41.0779 97.5241C40.5681 97.9411 39.9161 98.1556 39.1218 98.1556C38.6713 98.1556 38.2682 98.0841 37.8889 97.9292C37.5213 97.7743 37.2013 97.5718 36.9404 97.2978C36.6796 97.0238 36.4781 96.7021 36.324 96.3328C36.1817 95.9515 36.1106 95.5465 36.1106 95.0938C36.1106 94.6292 36.1817 94.2003 36.3121 93.7952C36.4425 93.4021 36.6441 93.0566 36.9049 92.7587C37.1657 92.4728 37.4858 92.2464 37.8651 92.0797C38.2445 91.9129 38.6713 91.8295 39.1573 91.8295C39.513 91.8295 39.8568 91.8771 40.1769 91.9724C40.5088 92.0677 40.7933 92.2107 41.0542 92.4013C41.315 92.5919 41.5284 92.8302 41.6825 93.1042C41.8366 93.3901 41.9314 93.7237 41.9551 94.105H40.3547C40.248 93.4259 39.8331 93.0804 39.1336 93.0804ZM42.7257 93.6999C42.868 93.3067 43.0814 92.9732 43.354 92.6992C43.6267 92.4251 43.9468 92.2107 44.3262 92.0558C44.7055 91.901 45.1323 91.8295 45.5947 91.8295C46.0689 91.8295 46.4956 91.901 46.875 92.0558C47.2544 92.2107 47.5863 92.4132 47.8471 92.6992C48.1198 92.9732 48.3213 93.3067 48.4754 93.6999C48.6177 94.093 48.7007 94.5219 48.7007 95.0104C48.7007 95.4869 48.6296 95.9277 48.4754 96.309C48.3332 96.7021 48.1198 97.0238 47.8471 97.2978C47.5745 97.5718 47.2544 97.7862 46.875 97.9292C46.4956 98.0722 46.0689 98.1436 45.5947 98.1436C45.1205 98.1436 44.7055 98.0722 44.3262 97.9292C43.9468 97.7743 43.6267 97.5718 43.354 97.2978C43.0814 97.0238 42.8798 96.6902 42.7257 96.309C42.5835 95.9277 42.5005 95.4869 42.5005 95.0104C42.5123 94.5338 42.5835 94.093 42.7257 93.6999ZM44.2195 95.7133C44.2669 95.9396 44.3499 96.1422 44.4566 96.3328C44.5633 96.5115 44.7174 96.6544 44.8952 96.7617C45.0849 96.8689 45.3101 96.9285 45.5828 96.9285C45.8555 96.9285 46.0926 96.8689 46.2823 96.7617C46.4719 96.6544 46.6261 96.5115 46.7327 96.3328C46.8513 96.1541 46.9224 95.9396 46.9698 95.7133C47.0173 95.4869 47.041 95.2486 47.041 95.0104C47.041 94.7721 47.0173 94.5338 46.9698 94.2956C46.9224 94.0692 46.8394 93.8548 46.7327 93.688C46.6261 93.5093 46.4719 93.3663 46.2823 93.2472C46.0926 93.128 45.8555 93.0804 45.5828 93.0804C45.3101 93.0804 45.073 93.14 44.8952 93.2472C44.7055 93.3663 44.5633 93.5093 44.4566 93.688C44.3499 93.8667 44.2669 94.0692 44.2195 94.2956C44.172 94.5338 44.1483 94.7602 44.1483 95.0104C44.1483 95.2486 44.172 95.4869 44.2195 95.7133ZM49.4239 96.2136H51.2377V98.0007H49.4239V96.2136ZM56.2642 98.0007V97.1667H56.2287C56.0153 97.5122 55.7545 97.7624 55.4225 97.9173C55.0906 98.0722 54.7468 98.1556 54.403 98.1556C53.9643 98.1556 53.5968 98.096 53.3242 97.9769C53.0396 97.8577 52.8263 97.7028 52.6603 97.4884C52.4943 97.2739 52.3876 97.0119 52.3165 96.714C52.2454 96.4043 52.2216 96.0707 52.2216 95.7014V92.0082H53.8577V95.3916C53.8577 95.892 53.9288 96.2613 54.0948 96.4996C54.2489 96.7378 54.5215 96.8689 54.9128 96.8689C55.3633 96.8689 55.6833 96.7378 55.8849 96.4638C56.0864 96.2017 56.1812 95.7609 56.1812 95.1414V91.9963H57.8173V98.0007H56.2642ZM60.2594 89.7208V94.1645L62.3222 92.0082H64.2664L62.0139 94.2122L64.5154 98.0007H62.5356L60.8877 95.3201L60.2594 95.9396V98.0007H58.6115V89.7208H60.2594Z" fill="black"/>
</svg>
