<svg width="20" height="20" viewBox="0 0 20 20" fill="none" xmlns="http://www.w3.org/2000/svg">
<path d="M3.3001 4.95L8.3392 8.7549L8.34085 8.75655C8.9002 9.16657 9.17987 9.372 9.48677 9.4512C9.75786 9.52134 10.0423 9.52134 10.3134 9.4512C10.6203 9.372 10.9008 9.16657 11.4618 8.7549C11.4618 8.7549 14.6933 6.27495 16.5001 4.95M2.4751 13.035V6.765C2.4751 5.841 2.4751 5.379 2.65495 5.0259C2.81335 4.71487 3.06497 4.46325 3.376 4.30485C3.7291 4.125 4.1911 4.125 5.1151 4.125H14.6851C15.6091 4.125 16.0711 4.125 16.4234 4.30485C16.7344 4.46325 16.9868 4.71487 17.1452 5.0259C17.3251 5.37817 17.3251 5.84017 17.3251 6.76252V13.0383C17.3251 13.9606 17.3251 14.421 17.1452 14.7741C16.9868 15.0847 16.7341 15.3371 16.4234 15.4951C16.0711 15.675 15.6099 15.675 14.6876 15.675H5.11262C4.19027 15.675 3.72827 15.675 3.376 15.4951C3.06554 15.337 2.81314 15.0846 2.65495 14.7741C2.4751 14.421 2.4751 13.959 2.4751 13.035Z" stroke="#999CA0" stroke-width="1.66667" stroke-linecap="round" stroke-linejoin="round"/>
</svg>
