<svg width="24" height="24" viewBox="0 0 24 24" fill="none" xmlns="http://www.w3.org/2000/svg">
<path d="M11.9961 12.9971C12.5484 12.9971 12.9961 12.5494 12.9961 11.9971C12.9961 11.4448 12.5484 10.9971 11.9961 10.9971C11.4438 10.9971 10.9961 11.4448 10.9961 11.9971C10.9961 12.5494 11.4438 12.9971 11.9961 12.9971Z" fill="#CCCCCC" stroke="#CCCCCC" stroke-width="1.5" stroke-linecap="round" stroke-linejoin="round"/>
<path d="M19 12.9971C19.5523 12.9971 20 12.5494 20 11.9971C20 11.4448 19.5523 10.9971 19 10.9971C18.4477 10.9971 18 11.4448 18 11.9971C18 12.5494 18.4477 12.9971 19 12.9971Z" fill="#CCCCCC" stroke="#CCCCCC" stroke-width="1.5" stroke-linecap="round" stroke-linejoin="round"/>
<path d="M5.00391 12.9971C5.55619 12.9971 6.00391 12.5494 6.00391 11.9971C6.00391 11.4448 5.55619 10.9971 5.00391 10.9971C4.45162 10.9971 4.00391 11.4448 4.00391 11.9971C4.00391 12.5494 4.45162 12.9971 5.00391 12.9971Z" fill="#CCCCCC" stroke="#CCCCCC" stroke-width="1.5" stroke-linecap="round" stroke-linejoin="round"/>
</svg>
