<svg width="20" height="20" viewBox="0 0 20 20" fill="none" xmlns="http://www.w3.org/2000/svg">
<path d="M7.48678 11.7566L9.8999 10.2923L12.313 11.7566L11.6737 9.01352L13.8187 7.15727L10.993 6.93039L9.8999 4.33164L8.80678 6.93039L5.98115 7.15727L8.12615 9.01352L7.48678 11.7566ZM1.6499 18.1504V3.30039C1.6499 2.84664 1.8116 2.45834 2.135 2.13549C2.4584 1.81264 2.8467 1.65094 3.2999 1.65039H16.4999C16.9537 1.65039 17.3422 1.81209 17.6656 2.13549C17.989 2.45889 18.1505 2.84719 18.1499 3.30039V13.2004C18.1499 13.6541 17.9885 14.0427 17.6656 14.3661C17.3428 14.6895 16.9542 14.8509 16.4999 14.8504H4.9499L1.6499 18.1504ZM4.24865 13.2004H16.4999V3.30039H3.2999V14.1285L4.24865 13.2004Z" fill="#0B5DD8"/>
</svg>
