<svg width="20" height="20" viewBox="0 0 20 20" fill="none" xmlns="http://www.w3.org/2000/svg">
<path d="M7.48678 11.7547L9.8999 10.2903L12.313 11.7547L11.6737 9.01156L13.8187 7.15531L10.993 6.92844L9.8999 4.32969L8.80678 6.92844L5.98115 7.15531L8.12615 9.01156L7.48678 11.7547ZM1.6499 18.1484V3.29844C1.6499 2.84469 1.8116 2.45639 2.135 2.13354C2.4584 1.81069 2.8467 1.64899 3.2999 1.64844H16.4999C16.9537 1.64844 17.3422 1.81014 17.6656 2.13354C17.989 2.45694 18.1505 2.84524 18.1499 3.29844V13.1984C18.1499 13.6522 17.9885 14.0408 17.6656 14.3642C17.3428 14.6876 16.9542 14.849 16.4999 14.8484H4.9499L1.6499 18.1484ZM4.24865 13.1984H16.4999V3.29844H3.2999V14.1266L4.24865 13.1984Z" fill="#999CA0"/>
</svg>
