<svg width="20" height="20" viewBox="0 0 20 20" fill="none" xmlns="http://www.w3.org/2000/svg">
<path d="M2.4751 9.90156C2.4751 10.8766 2.66715 11.8421 3.04029 12.743C3.41343 13.6438 3.96035 14.4624 4.64983 15.1518C5.3393 15.8413 6.15783 16.3882 7.05867 16.7614C7.95952 17.1345 8.92503 17.3266 9.9001 17.3266C10.8752 17.3266 11.8407 17.1345 12.7415 16.7614C13.6424 16.3882 14.4609 15.8413 15.1504 15.1518C15.8398 14.4624 16.3868 13.6438 16.7599 12.743C17.133 11.8421 17.3251 10.8766 17.3251 9.90156C17.3251 8.9265 17.133 7.96098 16.7599 7.06014C16.3868 6.1593 15.8398 5.34077 15.1504 4.65129C14.4609 3.96182 13.6424 3.4149 12.7415 3.04176C11.8407 2.66862 10.8752 2.47656 9.9001 2.47656C8.92503 2.47656 7.95952 2.66862 7.05867 3.04176C6.15783 3.4149 5.3393 3.96182 4.64983 4.65129C3.96035 5.34077 3.41343 6.1593 3.04029 7.06014C2.66715 7.96098 2.4751 8.9265 2.4751 9.90156Z" stroke="#999CA0" stroke-width="1.66667" stroke-linecap="round" stroke-linejoin="round"/>
<path d="M12.3753 7.42734C12.3753 6.98974 12.2015 6.57005 11.892 6.26062C11.5826 5.95118 11.1629 5.77734 10.7253 5.77734C10.2877 5.77734 9.868 5.95118 9.55857 6.26062C9.24913 6.57005 9.07529 6.98974 9.07529 7.42734V11.5523C9.07529 11.99 8.90145 12.4096 8.59202 12.7191C8.28258 13.0285 7.8629 13.2023 7.42529 13.2023H12.3753M7.42529 9.90234H10.7253" stroke="#999CA0" stroke-width="1.66667" stroke-linecap="round" stroke-linejoin="round"/>
</svg>
