<svg width="20" height="20" viewBox="0 0 20 20" fill="none" xmlns="http://www.w3.org/2000/svg">
<g clip-path="url(#clip0_3659_1948)">
<path d="M9.8998 12.3758C11.2667 12.3758 12.3748 11.2677 12.3748 9.90078C12.3748 8.53388 11.2667 7.42578 9.8998 7.42578C8.5329 7.42578 7.4248 8.53388 7.4248 9.90078C7.4248 11.2677 8.5329 12.3758 9.8998 12.3758Z" stroke="#999CA0" stroke-width="2" stroke-linecap="round" stroke-linejoin="round"/>
<path d="M16.0052 12.3742C15.8954 12.6231 15.8626 12.8991 15.9111 13.1667C15.9597 13.4343 16.0873 13.6813 16.2774 13.8757L16.3269 13.9252C16.4804 14.0785 16.6021 14.2604 16.6851 14.4607C16.7681 14.661 16.8109 14.8758 16.8109 15.0926C16.8109 15.3094 16.7681 15.5241 16.6851 15.7244C16.6021 15.9248 16.4804 16.1067 16.3269 16.26C16.1737 16.4134 15.9917 16.5351 15.7914 16.6181C15.5911 16.7012 15.3764 16.7439 15.1596 16.7439C14.9427 16.7439 14.728 16.7012 14.5277 16.6181C14.3274 16.5351 14.1454 16.4134 13.9922 16.26L13.9427 16.2105C13.7483 16.0203 13.5013 15.8927 13.2337 15.8442C12.9661 15.7956 12.69 15.8284 12.4412 15.9382C12.1972 16.0428 11.9891 16.2164 11.8425 16.4378C11.6959 16.6591 11.6173 16.9185 11.6162 17.184V17.3242C11.6162 17.7618 11.4424 18.1815 11.1329 18.4909C10.8235 18.8004 10.4038 18.9742 9.9662 18.9742C9.52859 18.9742 9.1089 18.8004 8.79947 18.4909C8.49003 18.1815 8.3162 17.7618 8.3162 17.3242V17.25C8.30981 16.9769 8.22142 16.7121 8.06252 16.4899C7.90362 16.2677 7.68155 16.0985 7.4252 16.0042C7.17636 15.8944 6.90034 15.8616 6.63271 15.9102C6.36508 15.9587 6.11813 16.0863 5.9237 16.2765L5.8742 16.326C5.72095 16.4794 5.53898 16.6011 5.33867 16.6841C5.13837 16.7672 4.92366 16.8099 4.70682 16.8099C4.48998 16.8099 4.27528 16.7672 4.07497 16.6841C3.87466 16.6011 3.69269 16.4794 3.53945 16.326C3.38603 16.1727 3.26433 15.9908 3.1813 15.7904C3.09826 15.5901 3.05552 15.3754 3.05552 15.1586C3.05552 14.9418 3.09826 14.727 3.1813 14.5267C3.26433 14.3264 3.38603 14.1445 3.53945 13.9912L3.58895 13.9417C3.77914 13.7473 3.90672 13.5003 3.95525 13.2327C4.00377 12.9651 3.97102 12.6891 3.8612 12.4402C3.75662 12.1962 3.58297 11.9881 3.36163 11.8415C3.14029 11.6949 2.88092 11.6163 2.61545 11.6152H2.4752C2.03759 11.6152 1.6179 11.4414 1.30847 11.1319C0.999034 10.8225 0.825195 10.4028 0.825195 9.96522C0.825195 9.52761 0.999034 9.10793 1.30847 8.79849C1.6179 8.48906 2.03759 8.31522 2.4752 8.31522H2.54945C2.82252 8.30883 3.08735 8.22044 3.30952 8.06154C3.53169 7.90264 3.70091 7.68058 3.7952 7.42422C3.90502 7.17539 3.93777 6.89936 3.88925 6.63173C3.84072 6.36411 3.71314 6.11715 3.52295 5.92272L3.47345 5.87322C3.32003 5.71998 3.19833 5.538 3.1153 5.3377C3.03226 5.13739 2.98952 4.92268 2.98952 4.70584C2.98952 4.48901 3.03226 4.2743 3.1153 4.07399C3.19833 3.87369 3.32003 3.69171 3.47345 3.53847C3.62669 3.38506 3.80866 3.26336 4.00897 3.18032C4.20928 3.09729 4.42398 3.05455 4.64082 3.05455C4.85766 3.05455 5.07237 3.09729 5.27267 3.18032C5.47298 3.26336 5.65495 3.38506 5.8082 3.53847L5.8577 3.58797C6.05213 3.77816 6.29908 3.90575 6.56671 3.95427C6.83434 4.0028 7.11036 3.97004 7.3592 3.86022H7.4252C7.66921 3.75564 7.87731 3.58199 8.02389 3.36065C8.17047 3.13931 8.24914 2.87994 8.2502 2.61447V2.47422C8.2502 2.03661 8.42403 1.61693 8.73347 1.30749C9.0429 0.998058 9.46259 0.824219 9.9002 0.824219C10.3378 0.824219 10.7575 0.998058 11.0669 1.30749C11.3764 1.61693 11.5502 2.03661 11.5502 2.47422V2.54847C11.5513 2.81394 11.6299 3.07331 11.7765 3.29465C11.9231 3.51599 12.1312 3.68964 12.3752 3.79422C12.624 3.90404 12.9001 3.9368 13.1677 3.88827C13.4353 3.83975 13.6823 3.71216 13.8767 3.52197L13.9262 3.47247C14.0794 3.31906 14.2614 3.19736 14.4617 3.11432C14.662 3.03129 14.8767 2.98855 15.0936 2.98855C15.3104 2.98855 15.5251 3.03129 15.7254 3.11432C15.9257 3.19736 16.1077 3.31906 16.2609 3.47247C16.4144 3.62571 16.5361 3.80769 16.6191 4.00799C16.7021 4.2083 16.7449 4.42301 16.7449 4.63984C16.7449 4.85668 16.7021 5.07139 16.6191 5.2717C16.5361 5.472 16.4144 5.65398 16.2609 5.80722L16.2114 5.85672C16.0213 6.05115 15.8937 6.29811 15.8451 6.56573C15.7966 6.83336 15.8294 7.10939 15.9392 7.35822V7.42422C16.0438 7.66823 16.2174 7.87633 16.4388 8.02292C16.6601 8.1695 16.9195 8.24816 17.1849 8.24922H17.3252C17.7628 8.24922 18.1825 8.42306 18.4919 8.73249C18.8014 9.04193 18.9752 9.46161 18.9752 9.89922C18.9752 10.3368 18.8014 10.7565 18.4919 11.0659C18.1825 11.3754 17.7628 11.5492 17.3252 11.5492H17.2509C16.9855 11.5503 16.7261 11.6289 16.5048 11.7755C16.2834 11.9221 16.1098 12.1302 16.0052 12.3742Z" stroke="#999CA0" stroke-width="2" stroke-linecap="round" stroke-linejoin="round"/>
</g>
<defs>
<clipPath id="clip0_3659_1948">
<rect width="19.8" height="19.8" fill="white"/>
</clipPath>
</defs>
</svg>
