<svg width="72" height="72" viewBox="0 0 72 72" fill="none" xmlns="http://www.w3.org/2000/svg">
<path fill-rule="evenodd" clip-rule="evenodd" d="M9 31.251C9 21.657 9 16.86 10.134 15.246C11.265 13.635 15.774 12.09 24.795 9.003L26.514 8.415C31.215 6.804 33.564 6 36 6C38.436 6 40.785 6.804 45.486 8.415L47.205 9.003C56.226 12.09 60.735 13.635 61.866 15.246C63 16.86 63 21.66 63 31.251V35.973C63 52.887 50.283 61.098 42.303 64.581C40.14 65.526 39.06 66 36 66C32.94 66 31.86 65.526 29.697 64.581C21.717 61.095 9 52.89 9 35.973V31.251ZM42 27C42 28.5913 41.3679 30.1174 40.2426 31.2426C39.1174 32.3679 37.5913 33 36 33C34.4087 33 32.8826 32.3679 31.7574 31.2426C30.6321 30.1174 30 28.5913 30 27C30 25.4087 30.6321 23.8826 31.7574 22.7574C32.8826 21.6321 34.4087 21 36 21C37.5913 21 39.1174 21.6321 40.2426 22.7574C41.3679 23.8826 42 25.4087 42 27ZM36 51C48 51 48 48.315 48 45C48 41.685 42.63 39 36 39C29.37 39 24 41.685 24 45C24 48.315 24 51 36 51Z" fill="#0B5DD8"/>
</svg>
