<svg width="20" height="20" viewBox="0 0 20 20" fill="none" xmlns="http://www.w3.org/2000/svg">
<path d="M9.99979 14.3957L6.54145 16.479C6.38867 16.5762 6.22895 16.6179 6.06229 16.604C5.89562 16.5901 5.74979 16.5346 5.62479 16.4373C5.49979 16.3401 5.40256 16.2187 5.33312 16.0732C5.26367 15.9276 5.24979 15.7643 5.29145 15.5832L6.20812 11.6457L3.14562 8.99984C3.00673 8.87484 2.92006 8.73234 2.88562 8.57234C2.85117 8.41234 2.86145 8.25623 2.91645 8.104C2.97145 7.95178 3.05479 7.82678 3.16645 7.729C3.27812 7.63123 3.4309 7.56873 3.62479 7.5415L7.66645 7.18734L9.22895 3.479C9.2984 3.31234 9.40617 3.18734 9.55229 3.104C9.6984 3.02067 9.84756 2.979 9.99979 2.979C10.152 2.979 10.3012 3.02067 10.4473 3.104C10.5934 3.18734 10.7012 3.31234 10.7706 3.479L12.3331 7.18734L16.3748 7.5415C16.5692 7.56928 16.722 7.63178 16.8331 7.729C16.9442 7.82623 17.0276 7.95123 17.0831 8.104C17.1387 8.25678 17.1492 8.41317 17.1148 8.57317C17.0803 8.73317 16.9934 8.87539 16.854 8.99984L13.7915 11.6457L14.7081 15.5832C14.7498 15.7637 14.7359 15.9271 14.6665 16.0732C14.597 16.2193 14.4998 16.3407 14.3748 16.4373C14.2498 16.534 14.104 16.5896 13.9373 16.604C13.7706 16.6184 13.6109 16.5768 13.4581 16.479L9.99979 14.3957Z" fill="#FFCD29"/>
</svg>
