<svg width="34" height="34" viewBox="0 0 34 34" fill="none" xmlns="http://www.w3.org/2000/svg">
<path d="M20.9969 25.9002C19.3326 25.9017 17.7 25.4454 16.2777 24.5811C14.8554 23.7169 13.6982 22.4781 12.9329 21.0002H20.9969L22.3969 18.2002H12.0089C11.9389 17.7382 11.8969 17.2762 11.8969 16.8002C11.8969 16.3242 11.9389 15.8622 12.0089 15.4002H20.9969L22.3969 12.6002H12.9329C13.6995 11.1234 14.8569 9.88538 16.2789 9.02131C17.7009 8.15724 19.3329 7.70025 20.9969 7.7002C23.2509 7.7002 25.3229 8.5262 26.9189 9.8982L29.3969 7.4202C27.0913 5.34523 24.0987 4.19806 20.9969 4.2002C15.5089 4.2002 10.8609 7.7142 9.12488 12.6002H4.19688L2.79688 15.4002H8.48088C8.36801 16.3301 8.36801 17.2703 8.48088 18.2002H4.19688L2.79688 21.0002H9.12488C10.8609 25.8862 15.5089 29.4002 20.9969 29.4002C24.2309 29.4002 27.1709 28.1822 29.3969 26.1802L26.9049 23.7022C25.3229 25.0742 23.2649 25.9002 20.9969 25.9002Z" fill="#0B5DD8"/>
</svg>
