<svg width="20" height="20" viewBox="0 0 20 20" fill="none" xmlns="http://www.w3.org/2000/svg">
<path d="M8.33333 4.58337C8.33321 3.94508 8.49601 3.31732 8.80633 2.75953C9.11664 2.20175 9.56419 1.73241 10.1066 1.39595C10.649 1.05948 11.2683 0.867042 11.9059 0.836842C12.5435 0.806642 13.1782 0.939683 13.75 1.22337C14.3217 0.940021 14.9563 0.807249 15.5937 0.837617C16.231 0.867986 16.8501 1.06049 17.3923 1.39691C17.9345 1.73333 18.3819 2.20255 18.6921 2.76014C19.0024 3.31774 19.1652 3.94528 19.1652 4.58337C19.1652 5.22146 19.0024 5.849 18.6921 6.40659C18.3819 6.96419 17.9345 7.4334 17.3923 7.76982C16.8501 8.10625 16.231 8.29875 15.5937 8.32912C14.9563 8.35949 14.3217 8.22671 13.75 7.94337C13.1782 8.22705 12.5435 8.36009 11.9059 8.32989C11.2683 8.29969 10.649 8.10725 10.1066 7.77079C9.56419 7.43433 9.11664 6.96498 8.80633 6.4072C8.49601 5.84942 8.33321 5.22166 8.33333 4.58337ZM15.2083 6.6567C15.2767 6.66337 15.3461 6.6667 15.4167 6.6667C15.6987 6.66609 15.9776 6.60824 16.2366 6.49666C16.4955 6.38507 16.7292 6.22207 16.9233 6.01754C17.1174 5.813 17.268 5.57118 17.3659 5.30674C17.4638 5.04229 17.507 4.76072 17.4929 4.47909C17.4788 4.19745 17.4076 3.92161 17.2838 3.66828C17.1599 3.41495 16.9859 3.1894 16.7723 3.0053C16.5587 2.8212 16.3099 2.68238 16.0411 2.59725C15.7723 2.51212 15.489 2.48245 15.2083 2.51003C15.616 3.12465 15.8334 3.84583 15.8333 4.58337C15.8334 5.3209 15.616 6.04209 15.2083 6.6567ZM7.02917 11.0417C6.89234 11.0413 6.75678 11.068 6.63024 11.12C6.5037 11.172 6.38865 11.2485 6.29167 11.345L4.58333 13.0534V16.25H9.2725L14.1083 15.0417L17.0517 13.785C17.1519 13.7309 17.2286 13.6416 17.2671 13.5343C17.3056 13.427 17.3031 13.3093 17.2601 13.2038C17.2172 13.0982 17.1368 13.0123 17.0343 12.9624C16.9319 12.9125 16.8146 12.9021 16.705 12.9334L16.6883 12.9375L11.345 14.1667H8.33333V12.5H10.9375C11.1309 12.5 11.3164 12.4232 11.4531 12.2865C11.5898 12.1497 11.6667 11.9643 11.6667 11.7709C11.6667 11.5775 11.5898 11.392 11.4531 11.2553C11.3164 11.1185 11.1309 11.0417 10.9375 11.0417H7.02917ZM13.3225 12.0017L16.2825 11.3209C16.5978 11.238 16.9278 11.2284 17.2473 11.293C17.5669 11.3575 17.8673 11.4944 18.1257 11.6931C18.3841 11.8919 18.5935 12.1472 18.7378 12.4395C18.8822 12.7318 18.9576 13.0532 18.9583 13.3792C18.958 13.7749 18.8476 14.1627 18.6395 14.4993C18.4314 14.8358 18.1338 15.1079 17.78 15.285L17.7575 15.2967L14.6408 16.6259L9.4775 17.9167H0V11.875H3.405L5.115 10.165C5.36695 9.91394 5.66589 9.71494 5.99475 9.57939C6.32362 9.44384 6.67596 9.3744 7.03167 9.37503H10.9375C11.2716 9.37499 11.602 9.44483 11.9076 9.58007C12.2131 9.71531 12.487 9.91296 12.7116 10.1603C12.9362 10.4077 13.1065 10.6993 13.2118 11.0164C13.317 11.3335 13.3547 11.6691 13.3225 12.0017ZM2.91667 13.5417H1.66667V16.25H2.91667V13.5417Z" fill="#0B5DD8"/>
</svg>
