<svg width="20" height="20" viewBox="0 0 20 20" fill="none" xmlns="http://www.w3.org/2000/svg">
<path d="M8.25 4.53744C8.24988 3.90553 8.41105 3.28405 8.71826 2.73184C9.02547 2.17964 9.46855 1.71499 10.0055 1.38189C10.5425 1.04879 11.1556 0.858275 11.7868 0.828377C12.418 0.798479 13.0464 0.93019 13.6125 1.21104C14.1785 0.930524 14.8067 0.79908 15.4377 0.829145C16.0687 0.859209 16.6816 1.04979 17.2184 1.38285C17.7552 1.7159 18.1981 2.18042 18.5052 2.73244C18.8124 3.28446 18.9736 3.90573 18.9736 4.53744C18.9736 5.16915 18.8124 5.79041 18.5052 6.34243C18.1981 6.89445 17.7552 7.35897 17.2184 7.69203C16.6816 8.02509 16.0687 8.21567 15.4377 8.24573C14.8067 8.27579 14.1785 8.14435 13.6125 7.86384C13.0464 8.14469 12.418 8.2764 11.7868 8.2465C11.1556 8.2166 10.5425 8.02608 10.0055 7.69299C9.46855 7.35989 9.02547 6.89524 8.71826 6.34303C8.41105 5.79083 8.24988 5.16935 8.25 4.53744ZM15.0562 6.59004C15.1239 6.59664 15.1926 6.59994 15.2625 6.59994C15.5417 6.59933 15.8178 6.54206 16.0742 6.43159C16.3306 6.32112 16.5619 6.15975 16.754 5.95726C16.9462 5.75477 17.0953 5.51537 17.1922 5.25357C17.2892 4.99177 17.3319 4.71302 17.318 4.4342C17.304 4.15538 17.2335 3.8823 17.1109 3.6315C16.9883 3.38071 16.816 3.15741 16.6046 2.97515C16.3931 2.79289 16.1469 2.65546 15.8807 2.57118C15.6146 2.4869 15.3341 2.45752 15.0562 2.48484C15.4599 3.0933 15.6751 3.80728 15.675 4.53744C15.6751 5.2676 15.4599 5.98157 15.0562 6.59004ZM6.95888 10.9312C6.82342 10.9308 6.68922 10.9572 6.56394 11.0087C6.43866 11.0602 6.32476 11.1359 6.22875 11.2315L4.5375 12.9227V16.0874H9.17977L13.9672 14.8912L16.8811 13.6471C16.9804 13.5934 17.0564 13.5051 17.0944 13.3989C17.1325 13.2927 17.1301 13.1761 17.0875 13.0717C17.045 12.9672 16.9654 12.882 16.864 12.8326C16.7625 12.7832 16.6464 12.773 16.5379 12.8039L16.5214 12.8081L11.2316 14.0249H8.25V12.3749H10.8281C11.0196 12.3749 11.2032 12.2989 11.3386 12.1635C11.4739 12.0281 11.55 11.8445 11.55 11.6531C11.55 11.4616 11.4739 11.278 11.3386 11.1426C11.2032 11.0072 11.0196 10.9312 10.8281 10.9312H6.95888ZM13.1893 11.8816L16.1197 11.2076C16.4318 11.1255 16.7585 11.116 17.0749 11.1799C17.3912 11.2438 17.6887 11.3793 17.9445 11.5761C18.2003 11.7729 18.4076 12.0256 18.5504 12.315C18.6933 12.6043 18.768 12.9226 18.7687 13.2453C18.7684 13.6371 18.6591 14.021 18.4531 14.3542C18.2471 14.6874 17.9525 14.9567 17.6022 15.1321L17.5799 15.1436L14.4944 16.4595L9.38272 17.7374H0V11.7562H3.37095L5.06385 10.0633C5.31328 9.8147 5.60923 9.61769 5.93481 9.4835C6.26038 9.3493 6.6092 9.28056 6.96135 9.28119H10.8281C11.1589 9.28114 11.486 9.35029 11.7885 9.48417C12.091 9.61806 12.3621 9.81373 12.5844 10.0586C12.8068 10.3035 12.9755 10.5922 13.0796 10.9061C13.1838 11.2201 13.2211 11.5524 13.1893 11.8816ZM2.8875 13.4062H1.65V16.0874H2.8875V13.4062Z" fill="#999CA0"/>
</svg>
