<svg width="20" height="20" viewBox="0 0 20 20" fill="none" xmlns="http://www.w3.org/2000/svg">
<path fill-rule="evenodd" clip-rule="evenodd" d="M7.21572 7.83877C7.40532 7.83877 7.59306 7.80142 7.76822 7.72887C7.94339 7.65631 8.10254 7.54997 8.23661 7.4159C8.37067 7.28184 8.47702 7.12268 8.54957 6.94752C8.62213 6.77235 8.65947 6.58462 8.65947 6.39502C8.65947 6.20542 8.62213 6.01768 8.54957 5.84252C8.47702 5.66736 8.37067 5.5082 8.23661 5.37413C8.10254 5.24007 7.94339 5.13372 7.76822 5.06117C7.59306 4.98861 7.40532 4.95127 7.21572 4.95127C6.83282 4.95127 6.46559 5.10338 6.19484 5.37413C5.92408 5.64489 5.77197 6.01211 5.77197 6.39502C5.77197 6.77793 5.92408 7.14515 6.19484 7.4159C6.46559 7.68666 6.83282 7.83877 7.21572 7.83877ZM7.21572 9.48877C7.622 9.48877 8.0243 9.40875 8.39965 9.25327C8.775 9.0978 9.11605 8.86991 9.40333 8.58263C9.69062 8.29535 9.9185 7.9543 10.074 7.57895C10.2295 7.20359 10.3095 6.8013 10.3095 6.39502C10.3095 5.98874 10.2295 5.58644 10.074 5.21109C9.9185 4.83574 9.69062 4.49469 9.40333 4.20741C9.11605 3.92013 8.775 3.69224 8.39965 3.53677C8.0243 3.38129 7.622 3.30127 7.21572 3.30127C6.39521 3.30127 5.6083 3.62722 5.02811 4.20741C4.44792 4.7876 4.12197 5.57451 4.12197 6.39502C4.12197 7.21553 4.44792 8.00244 5.02811 8.58263C5.6083 9.16282 6.39521 9.48877 7.21572 9.48877ZM2.69142 11.986C3.4331 10.9556 4.56335 10.3138 6.00792 10.3138H8.83602C10.2814 10.3138 11.4108 10.9556 12.1525 11.986C12.8727 12.9868 13.197 14.3059 13.197 15.6763C13.197 15.8951 13.1101 16.1049 12.9553 16.2596C12.8006 16.4143 12.5908 16.5013 12.372 16.5013C12.1532 16.5013 11.9433 16.4143 11.7886 16.2596C11.6339 16.1049 11.547 15.8951 11.547 15.6763C11.547 14.5402 11.2747 13.5915 10.8127 12.9496C10.373 12.3375 9.73445 11.9638 8.83602 11.9638H6.00792C5.10867 11.9638 4.47095 12.3375 4.0304 12.9496C3.56922 13.5907 3.29697 14.5402 3.29697 15.6763C3.29697 15.8951 3.21005 16.1049 3.05534 16.2596C2.90062 16.4143 2.69078 16.5013 2.47197 16.5013C2.25317 16.5013 2.04333 16.4143 1.88861 16.2596C1.73389 16.1049 1.64697 15.8951 1.64697 15.6763C1.64697 14.3059 1.9712 12.9868 2.69142 11.986Z" fill="#999CA0"/>
<path fill-rule="evenodd" clip-rule="evenodd" d="M1.64697 15.6762C1.64697 15.4574 1.73389 15.2476 1.88861 15.0928C2.04333 14.9381 2.25317 14.8512 2.47197 14.8512H12.348C12.5668 14.8512 12.7767 14.9381 12.9314 15.0928C13.0861 15.2476 13.173 15.4574 13.173 15.6762C13.173 15.895 13.0861 16.1048 12.9314 16.2596C12.7767 16.4143 12.5668 16.5012 12.348 16.5012H2.47197C2.25317 16.5012 2.04333 16.4143 1.88861 16.2596C1.73389 16.1048 1.64697 15.895 1.64697 15.6762ZM12.2829 4.84147L12.2598 4.83982C12.1358 4.83263 12.0128 4.81329 11.8926 4.78207C11.608 4.70617 11.3523 4.55437 11.2359 4.2912L11.2252 4.2681C11.0536 3.88035 11.2302 3.41587 11.6484 3.3441C12.0714 3.27298 12.5045 3.29058 12.9202 3.39577C13.336 3.50096 13.7254 3.69144 14.0636 3.95512C14.4018 4.21881 14.6815 4.54993 14.885 4.92748C15.0884 5.30502 15.2111 5.72074 15.2453 6.14824C15.2795 6.57574 15.2245 7.00569 15.0837 7.41078C14.9429 7.81587 14.7194 8.18726 14.4274 8.50138C14.1354 8.81549 13.7813 9.06547 13.3875 9.23544C12.9938 9.4054 12.569 9.49165 12.1401 9.4887C11.7161 9.4854 11.4678 9.05475 11.5758 8.64472L11.5824 8.61997C11.655 8.34112 11.8844 8.15055 12.1517 8.03092C12.2725 7.97751 12.3986 7.93687 12.5279 7.90965C12.8902 7.82441 13.21 7.61218 13.4293 7.31144C13.6486 7.01069 13.7528 6.64134 13.7232 6.27032C13.6936 5.8993 13.532 5.55118 13.2678 5.28905C13.0035 5.02692 12.6541 4.86813 12.2829 4.84147ZM12.7845 11.1387C12.7845 10.9199 12.8714 10.7101 13.0261 10.5553C13.1808 10.4006 13.3907 10.3137 13.6095 10.3137H13.786C15.2314 10.3137 16.3608 10.9555 17.1025 11.986C17.8227 12.9867 18.147 14.3059 18.147 15.6762C18.147 15.895 18.0601 16.1048 17.9053 16.2596C17.7506 16.4143 17.5408 16.5012 17.322 16.5012C17.1032 16.5012 16.8933 16.4143 16.7386 16.2596C16.5839 16.1048 16.497 15.895 16.497 15.6762C16.497 14.5402 16.2247 13.5914 15.7627 12.9496C15.323 12.3374 14.6844 11.9637 13.786 11.9637H13.6095C13.3907 11.9637 13.1808 11.8768 13.0261 11.7221C12.8714 11.5673 12.7845 11.3575 12.7845 11.1387Z" fill="#999CA0"/>
<path fill-rule="evenodd" clip-rule="evenodd" d="M14.022 15.6775C14.022 15.4587 14.1089 15.2489 14.2636 15.0942C14.4183 14.9395 14.6282 14.8525 14.847 14.8525H17.298C17.5169 14.8525 17.7267 14.9395 17.8814 15.0942C18.0361 15.2489 18.123 15.4587 18.123 15.6775C18.123 15.8963 18.0361 16.1062 17.8814 16.2609C17.7267 16.4156 17.5169 16.5025 17.298 16.5025H14.847C14.6282 16.5025 14.4183 16.4156 14.2636 16.2609C14.1089 16.1062 14.022 15.8963 14.022 15.6775Z" fill="#999CA0"/>
</svg>
