<svg width="40" height="40" viewBox="0 0 40 40" fill="none" xmlns="http://www.w3.org/2000/svg">
<rect width="40" height="40" rx="12" fill="white"/>
<rect x="0.5" y="0.5" width="39" height="39" rx="11.5" stroke="#2C5CD6" stroke-opacity="0.1"/>
<path d="M12.4779 28.9909H27.5379C29.0779 28.9909 30.0379 27.3209 29.2679 25.9909L21.7379 12.9809C20.9679 11.6509 19.0479 11.6509 18.2779 12.9809L10.7479 25.9909C9.97793 27.3209 10.9379 28.9909 12.4779 28.9909ZM20.0079 21.9909C19.4579 21.9909 19.0079 21.5409 19.0079 20.9909V18.9909C19.0079 18.4409 19.4579 17.9909 20.0079 17.9909C20.5579 17.9909 21.0079 18.4409 21.0079 18.9909V20.9909C21.0079 21.5409 20.5579 21.9909 20.0079 21.9909ZM21.0079 25.9909H19.0079V23.9909H21.0079V25.9909Z" fill="#FF543E"/>
</svg>
